<?xml version="1.0" encoding="utf-8"?>
<!-- Generator: Adobe Illustrator 24.2.3, SVG Export Plug-In . SVG Version: 6.00 Build 0)  -->
<svg version="1.1" id="Layer_1" xmlns="http://www.w3.org/2000/svg" xmlns:xlink="http://www.w3.org/1999/xlink" x="0px" y="0px"
	 viewBox="0 0 170.61 14.17" style="enable-background:new 0 0 170.61 14.17;" xml:space="preserve">
<style type="text/css">
	.st0{stroke:#000000;stroke-width:0.2364;stroke-miterlimit:10;}
	.st1{fill:#A7A9AC;}
	.st2{fill:none;stroke:#FFFFFF;stroke-width:0.25;stroke-linecap:round;stroke-miterlimit:10;}
	.st3{fill:none;stroke:#FFFFFF;stroke-width:0.25;stroke-linecap:round;stroke-miterlimit:10;stroke-dasharray:1.005,0.5025;}
	.st4{fill:none;stroke:#FFFFFF;stroke-width:0.25;stroke-linecap:round;stroke-miterlimit:10;stroke-dasharray:1.0742,0.5371;}
	.st5{fill:url(#SVGID_1_);stroke:#000000;stroke-width:0.25;stroke-miterlimit:10;}
	.st6{fill:url(#SVGID_2_);stroke:#000000;stroke-width:0.25;stroke-miterlimit:10;}
	.st7{fill:url(#SVGID_3_);}
	.st8{fill:url(#SVGID_4_);stroke:#000000;stroke-width:0.1104;stroke-miterlimit:10;}
	.st9{fill:#FFFFFF;}
	.st10{fill:url(#SVGID_5_);stroke:#000000;stroke-width:0.1248;stroke-miterlimit:10;}
	.st11{clip-path:url(#SVGID_7_);fill:url(#SVGID_8_);stroke:#000000;stroke-width:0.127;stroke-miterlimit:10;}
	.st12{fill:url(#SVGID_9_);stroke:#000000;stroke-width:0.25;stroke-miterlimit:10;}
	.st13{fill:url(#SVGID_10_);stroke:#000000;stroke-width:0.25;stroke-miterlimit:10;}
	.st14{fill:none;stroke:#FFFFFF;stroke-width:0.25;stroke-linecap:round;stroke-miterlimit:10;stroke-dasharray:1.0061,0.5031;}
	.st15{clip-path:url(#SVGID_12_);fill:url(#SVGID_13_);stroke:#000000;stroke-width:0.127;stroke-miterlimit:10;}
	.st16{fill:url(#SVGID_14_);stroke:#000000;stroke-width:0.1248;stroke-miterlimit:10;}
	.st17{fill:url(#SVGID_15_);}
	.st18{fill:url(#SVGID_16_);stroke:#000000;stroke-width:0.1104;stroke-miterlimit:10;}
	.st19{fill:url(#SVGID_17_);stroke:#000000;stroke-width:0.25;stroke-miterlimit:10;}
	.st20{fill:url(#SVGID_18_);stroke:#000000;stroke-width:0.25;stroke-miterlimit:10;}
	.st21{fill:none;stroke:#FFFFFF;stroke-width:0.25;stroke-linecap:round;stroke-miterlimit:10;stroke-dasharray:1.0079,0.504;}
	.st22{fill:url(#SVGID_19_);stroke:#000000;stroke-width:0.1248;stroke-miterlimit:10;}
	.st23{fill:url(#SVGID_20_);}
	.st24{fill:url(#SVGID_21_);stroke:#000000;stroke-width:0.1104;stroke-miterlimit:10;}
	.st25{clip-path:url(#SVGID_23_);fill:url(#SVGID_24_);stroke:#000000;stroke-width:0.127;stroke-miterlimit:10;}
</style>
<g>
	<g>
		<path class="st0" d="M170.47,6.92c-0.92,1.41-3.4,4.51-7.28,4.51H8.02V2.4h155.17C167.07,2.4,169.55,5.51,170.47,6.92z"/>
		
			<radialGradient id="SVGID_1_" cx="102.8339" cy="-82.5179" r="2.1727" gradientTransform="matrix(6.123234e-17 -1 1 6.123234e-17 96.8798 109.7508)" gradientUnits="userSpaceOnUse">
			<stop  offset="0" style="stop-color:#E6E6E6"/>
			<stop  offset="1" style="stop-color:#999999"/>
		</radialGradient>
		<path class="st5" d="M14.36,4.74c1.2,0,2.17,0.97,2.17,2.17c0,1.2-0.97,2.17-2.17,2.17c-1.2,0-2.17-0.97-2.17-2.17
			C12.19,5.72,13.16,4.74,14.36,4.74z"/>
		
			<radialGradient id="SVGID_2_" cx="102.8339" cy="-71.417" r="2.1728" gradientTransform="matrix(6.123234e-17 -1 1 6.123234e-17 96.8798 109.7508)" gradientUnits="userSpaceOnUse">
			<stop  offset="0" style="stop-color:#E6E6E6"/>
			<stop  offset="1" style="stop-color:#999999"/>
		</radialGradient>
		<path class="st6" d="M25.46,4.74c1.2,0,2.17,0.97,2.17,2.17c0,1.2-0.97,2.17-2.17,2.17c-1.2,0-2.17-0.97-2.17-2.17
			C23.29,5.72,24.26,4.74,25.46,4.74z"/>
		<path class="st9" d="M140.38,6.16c0.41,0,0.75,0.34,0.75,0.75s-0.34,0.75-0.75,0.75c-0.42,0-0.75-0.34-0.75-0.75
			S139.97,6.16,140.38,6.16z"/>
		<path class="st9" d="M131.36,6.16c0.42,0,0.75,0.34,0.75,0.75s-0.34,0.75-0.75,0.75c-0.41,0-0.75-0.34-0.75-0.75
			S130.94,6.16,131.36,6.16z"/>
		<path class="st9" d="M122.33,6.16c0.42,0,0.75,0.34,0.75,0.75s-0.34,0.75-0.75,0.75c-0.42,0-0.75-0.34-0.75-0.75
			S121.92,6.16,122.33,6.16z"/>
		<path class="st9" d="M113.31,6.16c0.41,0,0.75,0.34,0.75,0.75s-0.34,0.75-0.75,0.75c-0.42,0-0.75-0.34-0.75-0.75
			S112.89,6.16,113.31,6.16z"/>
		<g>
			<g>
				<polygon class="st1" points="39.44,8.61 39.44,8.11 38.15,7.75 38.15,8.61 				"/>
				<rect x="35.72" y="8.1" class="st1" width="1.67" height="0.51"/>
				<rect x="33.65" y="8.1" class="st1" width="1.31" height="0.51"/>
				<rect x="33.65" y="5.05" class="st1" width="1.31" height="0.51"/>
				<polygon class="st1" points="37.39,7.56 34.64,6.83 39.44,5.55 39.44,5.05 35.72,5.05 35.72,5.56 37.47,5.56 33.65,6.59 
					33.65,7.08 37.39,8.09 				"/>
				<g>
					<path class="st1" d="M37.89,6.1l-0.37,0.12v2.39c0,0.03-0.01,0.66-0.5,0.9v0.55c0.45-0.13,0.7-0.44,0.83-0.71
						c0.18-0.36,0.18-0.72,0.18-0.74V6.06L37.89,6.1z"/>
					<polygon class="st1" points="35.58,6.94 35.58,6.72 35.09,6.83 					"/>
					<path class="st1" d="M35.58,5.94v-0.9c0-0.1,0.04-0.97,0.97-0.97c0.75,0,0.92,0.57,0.96,0.84l0.51,0.01
						C38,4.79,37.96,4.55,37.84,4.32c-0.17-0.34-0.53-0.75-1.29-0.75s-1.12,0.41-1.29,0.75c-0.18,0.35-0.18,0.71-0.18,0.72v1.04
						L35.58,5.94z"/>
					<path class="st1" d="M35.58,8.61V7.72l-0.51-0.14v1.02c0,0.01,0,0.38,0.18,0.74c0.13,0.27,0.38,0.58,0.83,0.71V9.51
						C35.61,9.28,35.58,8.69,35.58,8.61z"/>
				</g>
			</g>
			<g>
				<g>
					<polygon class="st1" points="39.78,7.42 39.78,6.99 39.57,7.2 					"/>
					<polygon class="st1" points="39.76,6.84 39.54,6.63 39.54,7.05 					"/>
					<polygon class="st1" points="39.44,7.69 39.44,7.27 38.51,6.98 					"/>
					<polygon class="st1" points="39.57,6.48 39.78,6.69 39.78,6.27 					"/>
					<polygon class="st1" points="39.44,6.44 39.44,6 38.51,6.71 					"/>
					<polygon class="st1" points="39.44,7.11 39.44,6.57 38.52,6.84 					"/>
					<polygon class="st1" points="39.54,6.33 39.75,6.13 39.54,5.99 					"/>
					<polygon class="st1" points="39.75,7.56 39.54,7.35 39.54,7.69 					"/>
				</g>
			</g>
			
				<rect x="36.32" y="3.35" transform="matrix(0.7067 -0.7075 0.7075 0.7067 8.1793 26.9238)" class="st1" width="0.49" height="0.49"/>
			
				<rect x="36.32" y="4.81" transform="matrix(0.7076 -0.7066 0.7066 0.7076 7.1149 27.3149)" class="st1" width="0.49" height="0.49"/>
			
				<rect x="36.32" y="8.36" transform="matrix(0.7066 -0.7076 0.7076 0.7066 4.6404 28.3966)" class="st1" width="0.49" height="0.49"/>
		</g>
	</g>
	<g>
		<g>
			<path class="st2" d="M169.57,6.44c0.11,0.17,0.2,0.31,0.27,0.42c-0.07,0.11-0.16,0.25-0.27,0.42"/>
			<path class="st14" d="M169.28,7.68c-0.95,1.26-2.84,3.17-5.63,3.17H9.12"/>
			<polyline class="st2" points="8.85,10.85 8.35,10.85 8.35,10.35 			"/>
			<line class="st4" x1="8.35" y1="9.81" x2="8.35" y2="3.63"/>
			<polyline class="st2" points="8.35,3.36 8.35,2.86 8.85,2.86 			"/>
			<path class="st14" d="M9.36,2.86h154.29c2.95,0,4.89,2.13,5.78,3.37"/>
		</g>
	</g>
	<g>
		<defs>
			<polygon id="SVGID_11_" points="21.24,2.3 24.25,2.3 24.25,11.6 21.24,11.6 21.24,14.17 33.24,14.17 33.24,0 21.24,0 			"/>
		</defs>
		<clipPath id="SVGID_3_">
			<use xlink:href="#SVGID_11_"  style="overflow:visible;"/>
		</clipPath>
		
			<linearGradient id="SVGID_4_" gradientUnits="userSpaceOnUse" x1="102.7938" y1="-64.5166" x2="102.7938" y2="-75.2643" gradientTransform="matrix(6.123234e-17 -1 1 6.123234e-17 96.8798 109.7508)">
			<stop  offset="0" style="stop-color:#999999"/>
			<stop  offset="0.5828" style="stop-color:#E6E6E6"/>
			<stop  offset="1" style="stop-color:#999999"/>
		</linearGradient>
		<path style="clip-path:url(#SVGID_3_);fill:url(#SVGID_4_);stroke:#000000;stroke-width:0.127;stroke-miterlimit:10;" d="
			M32.36,6.96c0-3.3-2.67-5.97-5.97-5.97H24c-1.31,0-2.39,1.07-2.39,2.39v7.17c0,1.31,1.07,2.39,2.39,2.39h2.39
			C29.69,12.93,32.36,10.25,32.36,6.96z M24.53,11.73c-0.95,0-1.72-0.77-1.72-1.72V3.9c0-0.95,0.77-1.72,1.72-1.72h1.86
			c2.64,0,4.78,2.14,4.78,4.78c0,2.64-2.14,4.78-4.78,4.78H24.53z"/>
	</g>
	
		<linearGradient id="SVGID_5_" gradientUnits="userSpaceOnUse" x1="102.8254" y1="-78.0152" x2="102.8254" y2="-96.8175" gradientTransform="matrix(6.123234e-17 -1 1 6.123234e-17 96.8798 109.7508)">
		<stop  offset="0" style="stop-color:#999999"/>
		<stop  offset="0.5828" style="stop-color:#E6E6E6"/>
		<stop  offset="1" style="stop-color:#999999"/>
	</linearGradient>
	<path class="st10" d="M1.23,0.99c-0.65,0-1.17,0.69-1.17,1.32c0,3.07,0,6.14,0,9.2c0,0.63,0.52,1.31,1.17,1.32
		c5.49,0.06,10.73,0.06,16.46,0c0.65-0.01,1.17-0.69,1.17-1.32c0-3.07,0-6.13,0-9.2c0-0.63-0.52-1.32-1.17-1.32
		C12.21,0.98,6.63,0.98,1.23,0.99z M16.22,2.2c0.32,0,0.59,0.26,0.59,0.59v8.23c0,0.32-0.26,0.59-0.59,0.59H2.71
		c-0.32,0-0.59-0.27-0.59-0.59V2.79c0-0.32,0.26-0.59,0.59-0.59H16.22z"/>
	<g>
		
			<linearGradient id="SVGID_7_" gradientUnits="userSpaceOnUse" x1="102.8944" y1="-86.7319" x2="102.8944" y2="-95.8763" gradientTransform="matrix(6.123234e-17 -1 1 6.123234e-17 96.8798 109.7508)">
			<stop  offset="0" style="stop-color:#999999"/>
			<stop  offset="0.5828" style="stop-color:#E6E6E6"/>
			<stop  offset="1" style="stop-color:#999999"/>
		</linearGradient>
		<path style="fill:url(#SVGID_7_);" d="M1.26,6.1c-0.34,0.49-0.34,1.02,0,1.51c2.96,0.29,5.92-0.51,8.89-0.18c0-0.38,0-0.76,0-1.14
			C7.19,6.61,4.22,5.82,1.26,6.1z"/>
		
			<linearGradient id="SVGID_8_" gradientUnits="userSpaceOnUse" x1="102.8944" y1="-86.7319" x2="102.8944" y2="-95.8763" gradientTransform="matrix(6.123234e-17 -1 1 6.123234e-17 96.8798 109.7508)">
			<stop  offset="0" style="stop-color:#999999"/>
			<stop  offset="0.5828" style="stop-color:#E6E6E6"/>
			<stop  offset="1" style="stop-color:#999999"/>
		</linearGradient>
		<path style="fill:url(#SVGID_8_);stroke:#000000;stroke-width:0.1104;stroke-miterlimit:10;" d="M1.26,6.1
			c-0.34,0.49-0.34,1.02,0,1.51c2.96,0.29,5.92-0.51,8.89-0.18c0-0.38,0-0.76,0-1.14C7.19,6.61,4.22,5.82,1.26,6.1z"/>
	</g>
</g>
</svg>
