<?xml version="1.0" encoding="utf-8"?>
<!-- Generator: Adobe Illustrator 24.2.3, SVG Export Plug-In . SVG Version: 6.00 Build 0)  -->
<svg version="1.1" id="Layer_1" xmlns="http://www.w3.org/2000/svg" xmlns:xlink="http://www.w3.org/1999/xlink" x="0px" y="0px"
	 viewBox="0 0 287.55 19.54" style="enable-background:new 0 0 287.55 19.54;" xml:space="preserve">
<style type="text/css">
	.st0{stroke:#000000;stroke-width:0.2364;stroke-miterlimit:10;}
	.st1{fill:none;stroke:#FFFFFF;stroke-width:0.25;stroke-linecap:round;stroke-miterlimit:10;}
	.st2{fill:none;stroke:#FFFFFF;stroke-width:0.25;stroke-linecap:round;stroke-miterlimit:10;stroke-dasharray:1.0034,0.5017;}
	.st3{fill:none;stroke:#FFFFFF;stroke-width:0.25;stroke-linecap:round;stroke-miterlimit:10;stroke-dasharray:1.0028,0.5014;}
	.st4{fill:url(#SVGID_1_);stroke:#000000;stroke-width:0.25;stroke-miterlimit:10;}
	.st5{fill:url(#SVGID_2_);stroke:#000000;stroke-width:0.25;stroke-miterlimit:10;}
	.st6{clip-path:url(#SVGID_4_);fill:url(#SVGID_5_);stroke:#000000;stroke-width:0.25;stroke-miterlimit:10;}
	.st7{fill:url(#SVGID_6_);stroke:#000000;stroke-width:0.25;stroke-miterlimit:10;}
	.st8{fill:url(#SVGID_7_);}
	.st9{fill:url(#SVGID_8_);stroke:#000000;stroke-width:0.1479;stroke-miterlimit:10;}
	.st10{fill:#FFFFFF;}
	.st11{fill:#A7A9AC;}
	.st12{fill:none;stroke:#FFFFFF;stroke-width:0.25;stroke-linecap:round;stroke-miterlimit:10;stroke-dasharray:1.0036,0.5018;}
	.st13{fill:none;stroke:#FFFFFF;stroke-width:0.25;stroke-linecap:round;stroke-miterlimit:10;stroke-dasharray:1.0027,0.5014;}
	.st14{fill:url(#SVGID_9_);stroke:#000000;stroke-width:0.25;stroke-miterlimit:10;}
	.st15{fill:url(#SVGID_10_);stroke:#000000;stroke-width:0.25;stroke-miterlimit:10;}
	.st16{clip-path:url(#SVGID_12_);fill:url(#SVGID_13_);stroke:#000000;stroke-width:0.25;stroke-miterlimit:10;}
	.st17{fill:url(#SVGID_14_);stroke:#000000;stroke-width:0.25;stroke-miterlimit:10;}
	.st18{fill:url(#SVGID_15_);}
	.st19{fill:url(#SVGID_16_);stroke:#000000;stroke-width:0.1479;stroke-miterlimit:10;}
	.st20{fill:none;stroke:#FFFFFF;stroke-width:0.25;stroke-linecap:round;stroke-miterlimit:10;stroke-dasharray:1.0035,0.5017;}
	.st21{fill:url(#SVGID_17_);stroke:#000000;stroke-width:0.25;stroke-miterlimit:10;}
	.st22{fill:url(#SVGID_18_);stroke:#000000;stroke-width:0.25;stroke-miterlimit:10;}
	.st23{clip-path:url(#SVGID_20_);fill:url(#SVGID_21_);stroke:#000000;stroke-width:0.25;stroke-miterlimit:10;}
	.st24{fill:url(#SVGID_22_);stroke:#000000;stroke-width:0.25;stroke-miterlimit:10;}
	.st25{fill:url(#SVGID_23_);}
	.st26{fill:url(#SVGID_24_);stroke:#000000;stroke-width:0.1479;stroke-miterlimit:10;}
	.st27{fill:url(#SVGID_25_);stroke:#000000;stroke-width:0.25;stroke-miterlimit:10;}
	.st28{fill:url(#SVGID_26_);stroke:#000000;stroke-width:0.25;stroke-miterlimit:10;}
	.st29{clip-path:url(#SVGID_28_);fill:url(#SVGID_29_);stroke:#000000;stroke-width:0.25;stroke-miterlimit:10;}
	.st30{fill:url(#SVGID_30_);stroke:#000000;stroke-width:0.25;stroke-miterlimit:10;}
	.st31{fill:url(#SVGID_31_);}
	.st32{fill:url(#SVGID_32_);stroke:#000000;stroke-width:0.1479;stroke-miterlimit:10;}
	.st33{fill:url(#SVGID_33_);stroke:#000000;stroke-width:0.25;stroke-miterlimit:10;}
	.st34{fill:url(#SVGID_34_);stroke:#000000;stroke-width:0.25;stroke-miterlimit:10;}
	.st35{clip-path:url(#SVGID_36_);fill:url(#SVGID_37_);stroke:#000000;stroke-width:0.25;stroke-miterlimit:10;}
	.st36{fill:url(#SVGID_38_);stroke:#000000;stroke-width:0.25;stroke-miterlimit:10;}
	.st37{fill:url(#SVGID_39_);}
	.st38{fill:url(#SVGID_40_);stroke:#000000;stroke-width:0.1479;stroke-miterlimit:10;}
	.st39{fill:url(#SVGID_41_);stroke:#000000;stroke-width:0.25;stroke-miterlimit:10;}
	.st40{fill:url(#SVGID_42_);stroke:#000000;stroke-width:0.25;stroke-miterlimit:10;}
	.st41{clip-path:url(#SVGID_44_);fill:url(#SVGID_45_);stroke:#000000;stroke-width:0.25;stroke-miterlimit:10;}
	.st42{fill:url(#SVGID_46_);stroke:#000000;stroke-width:0.25;stroke-miterlimit:10;}
	.st43{fill:url(#SVGID_47_);}
	.st44{fill:url(#SVGID_48_);stroke:#000000;stroke-width:0.1479;stroke-miterlimit:10;}
	.st45{fill:none;stroke:#FFFFFF;stroke-width:0.25;stroke-linecap:round;stroke-miterlimit:10;stroke-dasharray:1.0042,0.5021;}
	.st46{fill:url(#SVGID_49_);stroke:#000000;stroke-width:0.25;stroke-miterlimit:10;}
	.st47{fill:url(#SVGID_50_);stroke:#000000;stroke-width:0.25;stroke-miterlimit:10;}
	.st48{clip-path:url(#SVGID_52_);fill:url(#SVGID_53_);stroke:#000000;stroke-width:0.25;stroke-miterlimit:10;}
	.st49{fill:url(#SVGID_54_);stroke:#000000;stroke-width:0.25;stroke-miterlimit:10;}
	.st50{fill:url(#SVGID_55_);}
	.st51{fill:url(#SVGID_56_);stroke:#000000;stroke-width:0.1479;stroke-miterlimit:10;}
	.st52{fill:url(#SVGID_57_);}
	.st53{fill:url(#SVGID_58_);stroke:#000000;stroke-width:0.1479;stroke-miterlimit:10;}
	.st54{fill:none;stroke:#FFFFFF;stroke-width:0.25;stroke-linecap:round;stroke-miterlimit:10;stroke-dasharray:1.0044,0.5022;}
	.st55{fill:url(#SVGID_59_);stroke:#000000;stroke-width:0.25;stroke-miterlimit:10;}
	.st56{fill:url(#SVGID_60_);stroke:#000000;stroke-width:0.25;stroke-miterlimit:10;}
	.st57{clip-path:url(#SVGID_62_);fill:url(#SVGID_63_);stroke:#000000;stroke-width:0.25;stroke-miterlimit:10;}
	.st58{fill:url(#SVGID_64_);stroke:#000000;stroke-width:0.25;stroke-miterlimit:10;}
	.st59{fill:none;stroke:#FFFFFF;stroke-width:0.25;stroke-linecap:round;stroke-miterlimit:10;stroke-dasharray:1.0048,0.5024;}
	.st60{fill:url(#SVGID_65_);stroke:#000000;stroke-width:0.25;stroke-miterlimit:10;}
	.st61{fill:url(#SVGID_66_);stroke:#000000;stroke-width:0.25;stroke-miterlimit:10;}
	.st62{clip-path:url(#SVGID_68_);fill:url(#SVGID_69_);stroke:#000000;stroke-width:0.25;stroke-miterlimit:10;}
	.st63{fill:url(#SVGID_70_);stroke:#000000;stroke-width:0.25;stroke-miterlimit:10;}
	.st64{fill:url(#SVGID_71_);}
	.st65{fill:url(#SVGID_72_);stroke:#000000;stroke-width:0.1479;stroke-miterlimit:10;}
	.st66{fill:url(#SVGID_73_);stroke:#000000;stroke-width:0.25;stroke-miterlimit:10;}
	.st67{fill:url(#SVGID_74_);}
	.st68{fill:url(#SVGID_75_);stroke:#000000;stroke-width:0.1104;stroke-miterlimit:10;}
	.st69{clip-path:url(#SVGID_77_);fill:url(#SVGID_78_);stroke:#000000;stroke-width:0.127;stroke-miterlimit:10;}
	.st70{fill:url(#SVGID_79_);stroke:#000000;stroke-width:0.1248;stroke-miterlimit:10;}
	.st71{fill:url(#SVGID_80_);stroke:#000000;stroke-width:0.25;stroke-miterlimit:10;}
	.st72{fill:url(#SVGID_81_);stroke:#000000;stroke-width:0.25;stroke-miterlimit:10;}
	.st73{fill:url(#SVGID_82_);stroke:#000000;stroke-width:0.25;stroke-miterlimit:10;}
	.st74{clip-path:url(#SVGID_84_);fill:url(#SVGID_85_);stroke:#000000;stroke-width:0.127;stroke-miterlimit:10;}
	.st75{fill:url(#SVGID_86_);stroke:#000000;stroke-width:0.1248;stroke-miterlimit:10;}
	.st76{fill:url(#SVGID_87_);}
	.st77{fill:url(#SVGID_88_);stroke:#000000;stroke-width:0.1104;stroke-miterlimit:10;}
	.st78{fill:url(#SVGID_89_);stroke:#000000;stroke-width:0.25;stroke-miterlimit:10;}
	.st79{fill:url(#SVGID_90_);stroke:#000000;stroke-width:0.25;stroke-miterlimit:10;}
	.st80{clip-path:url(#SVGID_92_);fill:url(#SVGID_93_);stroke:#000000;stroke-width:0.127;stroke-miterlimit:10;}
	.st81{fill:url(#SVGID_94_);stroke:#000000;stroke-width:0.1248;stroke-miterlimit:10;}
	.st82{fill:url(#SVGID_95_);}
	.st83{fill:url(#SVGID_96_);stroke:#000000;stroke-width:0.1104;stroke-miterlimit:10;}
	.st84{fill:none;stroke:#000000;stroke-width:0.25;stroke-miterlimit:10;}
	.st85{fill:none;stroke:#000000;stroke-width:0.25;stroke-linecap:round;}
	.st86{fill:none;stroke:#000000;stroke-width:0.25;stroke-linecap:round;stroke-dasharray:3.3047,1.3073;}
	.st87{fill:none;stroke:#000000;stroke-width:0.25;stroke-linecap:round;stroke-dasharray:2.8051,1.1097;}
	.st88{fill:none;stroke:#000000;stroke-width:0.25;stroke-linecap:round;stroke-dasharray:3.4042,1.3467;}
	.st89{fill:none;stroke:#000000;stroke-width:0.25;stroke-linecap:round;stroke-dasharray:3.4629,1.3699;}
	.st90{fill:none;stroke:#000000;stroke-width:0.25;stroke-linecap:round;stroke-dasharray:2.947,1.1658;}
	.st91{fill:none;stroke:#000000;stroke-width:0.2542;stroke-linecap:round;stroke-dasharray:3.365,1.3312;}
</style>
<g>
	<path class="st0" d="M10.61,3.75h27.08c0,0,3.01,0,9.02,0s9.02-3.63,15.04-3.63c3.01,0,123.34,0,126.35,0
		c6.02,0,9.03,3.63,15.04,3.63s9.02,0,9.02,0h66.23c6.02,0,9.03,6.02,9.03,6.02s-3.01,6.02-9.03,6.02h-66.23c0,0-3.01,0-9.02,0
		s-9.03,3.63-15.04,3.63c-3.01,0-123.34,0-126.35,0c-6.02,0-9.02-3.63-15.04-3.63s-9.02,0-9.02,0H10.61V3.75z"/>
	<g>
		<g>
			<path class="st1" d="M286.3,9.35c0.11,0.16,0.19,0.31,0.26,0.42c-0.07,0.12-0.16,0.26-0.26,0.42"/>
			<path class="st13" d="M286.01,10.6c-1.17,1.64-3.74,4.43-7.62,4.43h-75.25c-3.15,0-5.52,0.95-7.8,1.87
				c-2.25,0.91-4.38,1.76-7.24,1.76H61.75c-2.86,0-4.99-0.86-7.24-1.76c-2.29-0.92-4.65-1.87-7.8-1.87H12.12"/>
			<polyline class="st1" points="11.87,15.03 11.36,15.03 11.36,14.53 			"/>
			<line class="st3" x1="11.36" y1="14.03" x2="11.36" y2="5.26"/>
			<polyline class="st1" points="11.36,5.01 11.36,4.5 11.87,4.5 			"/>
			<path class="st13" d="M12.37,4.5h34.35c3.15,0,5.52-0.95,7.8-1.87c2.25-0.91,4.38-1.76,7.24-1.76H188.1
				c2.86,0,4.99,0.86,7.24,1.76c2.29,0.92,4.65,1.87,7.8,1.87h75.25c4.06,0,6.67,3.03,7.76,4.64"/>
		</g>
	</g>
	
		<radialGradient id="SVGID_1_" cx="823.9327" cy="-855.7051" r="2.1727" gradientTransform="matrix(6.123234e-17 -1 1 6.123234e-17 873.9214 833.7015)" gradientUnits="userSpaceOnUse">
		<stop  offset="0" style="stop-color:#E6E6E6"/>
		<stop  offset="1" style="stop-color:#999999"/>
	</radialGradient>
	<path class="st4" d="M18.22,7.6c1.2,0,2.17,0.97,2.17,2.17c0,1.2-0.97,2.17-2.17,2.17c-1.2,0-2.17-0.97-2.17-2.17
		C16.04,8.57,17.02,7.6,18.22,7.6z"/>
	
		<radialGradient id="SVGID_2_" cx="823.9327" cy="-840.9978" r="2.1726" gradientTransform="matrix(6.123234e-17 -1 1 6.123234e-17 873.9214 833.7015)" gradientUnits="userSpaceOnUse">
		<stop  offset="0" style="stop-color:#E6E6E6"/>
		<stop  offset="1" style="stop-color:#999999"/>
	</radialGradient>
	<path class="st5" d="M32.92,7.6c1.2,0,2.17,0.97,2.17,2.17c0,1.2-0.97,2.17-2.17,2.17c-1.2,0-2.17-0.97-2.17-2.17
		C30.75,8.57,31.72,7.6,32.92,7.6z"/>
	<g>
		<defs>
			<polygon id="SVGID_35_" points="23.94,3.64 27.91,3.64 27.91,15.88 23.94,15.88 23.94,19.25 39.73,19.25 39.73,0.62 23.94,0.62 
							"/>
		</defs>
		<clipPath id="SVGID_4_">
			<use xlink:href="#SVGID_35_"  style="overflow:visible;"/>
		</clipPath>
		
			<linearGradient id="SVGID_5_" gradientUnits="userSpaceOnUse" x1="823.9324" y1="-835.3438" x2="823.9324" y2="-849.4829" gradientTransform="matrix(6.123234e-17 -1 1 6.123234e-17 873.9214 833.7015)">
			<stop  offset="0" style="stop-color:#999999"/>
			<stop  offset="0.5828" style="stop-color:#E6E6E6"/>
			<stop  offset="1" style="stop-color:#999999"/>
		</linearGradient>
		<path class="st6" d="M38.58,9.77c0-4.34-3.52-7.85-7.85-7.85h-3.14c-1.73,0-3.14,1.41-3.14,3.14v9.43c0,1.73,1.41,3.14,3.14,3.14
			h3.14C35.06,17.62,38.58,14.11,38.58,9.77z M28.27,16.05c-1.24,0-2.26-1.02-2.26-2.26V5.75c0-1.24,1.02-2.26,2.26-2.26h2.45
			c3.47,0,6.28,2.81,6.28,6.28c0,3.47-2.81,6.28-6.28,6.28H28.27z"/>
	</g>
	
		<linearGradient id="SVGID_6_" gradientUnits="userSpaceOnUse" x1="823.9513" y1="-848.6148" x2="823.9513" y2="-873.7964" gradientTransform="matrix(6.123234e-17 -1 1 6.123234e-17 873.9214 833.7015)">
		<stop  offset="0" style="stop-color:#999999"/>
		<stop  offset="0.5828" style="stop-color:#E6E6E6"/>
		<stop  offset="1" style="stop-color:#999999"/>
	</linearGradient>
	<path class="st7" d="M1.69,1.82C0.83,1.94,0.13,2.75,0.13,3.59c0,4.11,0,8.22,0,12.32c0,0.84,0.7,1.64,1.57,1.76
		c7.32,0.97,14.73,0.97,22.05,0c0.86-0.12,1.57-0.92,1.57-1.76c0-4.11,0-8.22,0-12.32c0-0.84-0.7-1.64-1.57-1.76
		C16.43,0.85,9.01,0.85,1.69,1.82z M21.77,3.45c0.43,0,0.79,0.35,0.79,0.79v11.02c0,0.43-0.35,0.79-0.79,0.79H3.67
		c-0.43,0-0.79-0.35-0.79-0.79V4.24c0-0.43,0.35-0.79,0.79-0.79H21.77z"/>
	<g>
		
			<linearGradient id="SVGID_7_" gradientUnits="userSpaceOnUse" x1="824.0161" y1="-860.1343" x2="824.0161" y2="-872.3811" gradientTransform="matrix(6.123234e-17 -1 1 6.123234e-17 873.9214 833.7015)">
			<stop  offset="0" style="stop-color:#999999"/>
			<stop  offset="0.5828" style="stop-color:#E6E6E6"/>
			<stop  offset="1" style="stop-color:#999999"/>
		</linearGradient>
		<path class="st8" d="M1.89,8.68c-0.46,0.65-0.46,1.37,0,2.02c3.97,0.38,7.93-0.68,11.9-0.25c0-0.51,0-1.02,0-1.52
			C9.82,9.35,5.85,8.3,1.89,8.68z"/>
		
			<linearGradient id="SVGID_8_" gradientUnits="userSpaceOnUse" x1="824.0161" y1="-860.1343" x2="824.0161" y2="-872.3811" gradientTransform="matrix(6.123234e-17 -1 1 6.123234e-17 873.9214 833.7015)">
			<stop  offset="0" style="stop-color:#999999"/>
			<stop  offset="0.5828" style="stop-color:#E6E6E6"/>
			<stop  offset="1" style="stop-color:#999999"/>
		</linearGradient>
		<path class="st9" d="M1.89,8.68c-0.46,0.65-0.46,1.37,0,2.02c3.97,0.38,7.93-0.68,11.9-0.25c0-0.51,0-1.02,0-1.52
			C9.82,9.35,5.85,8.3,1.89,8.68z"/>
	</g>
	<path class="st10" d="M251.28,9.02c0.42,0,0.75,0.34,0.75,0.75c0,0.42-0.34,0.75-0.75,0.75c-0.41,0-0.75-0.34-0.75-0.75
		C250.53,9.35,250.86,9.02,251.28,9.02z"/>
	<path class="st10" d="M239.25,9.02c0.42,0,0.75,0.34,0.75,0.75c0,0.42-0.34,0.75-0.75,0.75c-0.42,0-0.75-0.34-0.75-0.75
		C238.49,9.35,238.83,9.02,239.25,9.02z"/>
	<path class="st10" d="M227.21,9.02c0.41,0,0.75,0.34,0.75,0.75c0,0.42-0.34,0.75-0.75,0.75c-0.42,0-0.75-0.34-0.75-0.75
		C226.46,9.35,226.8,9.02,227.21,9.02z"/>
	<path class="st10" d="M215.18,9.02c0.41,0,0.75,0.34,0.75,0.75c0,0.42-0.34,0.75-0.75,0.75c-0.42,0-0.75-0.34-0.75-0.75
		C214.43,9.35,214.76,9.02,215.18,9.02z"/>
	<g>
		<g>
			<path class="st11" d="M189.11,10.9c-0.03,0.05-0.05,0.09-0.08,0.11c-0.02,0.02-0.03,0.03-0.04,0.03c-0.01,0-0.02-0.01-0.03-0.03
				c-0.06-0.3-0.09-0.6-0.1-0.91c0-0.31,0.05-0.61,0.18-0.9c-0.1,0.11-0.21,0.24-0.33,0.38c-0.13,0.14-0.25,0.29-0.39,0.45
				c-0.13,0.16-0.26,0.32-0.39,0.48c-0.13,0.16-0.24,0.32-0.34,0.47c-0.1,0.15-0.18,0.29-0.23,0.42c-0.06,0.13-0.08,0.23-0.07,0.32
				c0.01,0.02,0.01,0.04,0.02,0.06c0.01,0.02,0.01,0.04-0.01,0.07c-0.04,0-0.08-0.02-0.1-0.03c-0.02-0.02-0.04-0.04-0.07-0.05
				c-0.13-0.1-0.22-0.22-0.29-0.34c-0.07-0.12-0.11-0.25-0.13-0.38c-0.02-0.13-0.01-0.27,0.02-0.41c0.03-0.14,0.08-0.28,0.15-0.41
				c0.1-0.18,0.24-0.36,0.41-0.53c0.18-0.17,0.39-0.32,0.65-0.46l0.18-0.09c0.1-0.04,0.2-0.08,0.3-0.12c0.1-0.04,0.21-0.07,0.32-0.1
				c0.1-0.1,0.2-0.21,0.29-0.31c0.09-0.1,0.18-0.21,0.27-0.31c0.01-0.01,0.02-0.03,0.03-0.04c0.01-0.01,0.02-0.03,0.03-0.04
				c-0.03-0.03-0.05-0.05-0.08-0.07c-0.03-0.02-0.06-0.04-0.09-0.07c0.07-0.04,0.14-0.08,0.22-0.12c0.07-0.04,0.14-0.08,0.21-0.12
				c0.13-0.15,0.2-0.26,0.2-0.32c0-0.06-0.04-0.1-0.12-0.09c-0.08,0-0.18,0.03-0.31,0.08c-0.13,0.05-0.25,0.12-0.36,0.19
				c-0.11,0.08-0.2,0.17-0.27,0.26c-0.07,0.09-0.09,0.18-0.05,0.27c-0.05,0.02-0.1,0.01-0.14-0.04c-0.04-0.05-0.07-0.11-0.08-0.2
				c-0.01-0.08,0-0.18,0.02-0.28c0.03-0.1,0.08-0.2,0.16-0.28c0.08-0.09,0.19-0.15,0.34-0.21c0.15-0.05,0.34-0.07,0.57-0.05
				c0.14,0.01,0.24,0.04,0.32,0.09c0.08,0.05,0.13,0.11,0.16,0.19c0.03,0.08,0.04,0.16,0.03,0.25c-0.01,0.09-0.04,0.18-0.09,0.26
				c0.02,0.02,0.05,0.04,0.09,0.06c0.04,0.02,0.07,0.04,0.09,0.06c0,0,0.01,0,0.01,0.01c-0.01,0-0.02,0.01-0.03,0.01
				c-0.01,0-0.02,0.01-0.03,0.01c-0.11,0.07-0.21,0.18-0.31,0.31c-0.1,0.14-0.19,0.29-0.28,0.46c-0.08,0.17-0.16,0.35-0.23,0.54
				c-0.07,0.19-0.13,0.38-0.17,0.55c-0.04,0.18-0.07,0.34-0.09,0.49c-0.02,0.15-0.01,0.27,0.01,0.36c0.08-0.15,0.19-0.31,0.32-0.47
				c0.13-0.17,0.27-0.33,0.43-0.5c0.15-0.16,0.31-0.32,0.48-0.47c0.17-0.15,0.33-0.29,0.48-0.41c0.18-0.18,0.38-0.35,0.58-0.51
				c0.21-0.16,0.41-0.3,0.62-0.43c0.21-0.12,0.42-0.23,0.63-0.31c0.21-0.08,0.41-0.13,0.6-0.15c0.5-0.06,0.68,0.1,0.52,0.49
				c-0.02,0.05-0.04,0.07-0.04,0.07c0,0-0.01-0.02-0.01-0.05c0-0.03-0.01-0.07-0.03-0.12c-0.01-0.05-0.04-0.1-0.08-0.14
				c-0.04-0.04-0.09-0.08-0.15-0.1c-0.06-0.02-0.15-0.02-0.27,0c-0.16,0.03-0.33,0.1-0.52,0.2c-0.19,0.11-0.39,0.24-0.59,0.41
				c-0.2,0.16-0.41,0.35-0.62,0.55c-0.2,0.2-0.4,0.42-0.57,0.64c-0.18,0.22-0.34,0.44-0.48,0.66c-0.15,0.22-0.26,0.42-0.34,0.62
				c-0.08,0.19-0.13,0.36-0.15,0.52c-0.01,0.15,0.02,0.27,0.1,0.35c0.12,0.12,0.28,0.18,0.48,0.18c0.2,0,0.41-0.05,0.61-0.15
				c0.21-0.1,0.4-0.23,0.58-0.41c0.18-0.17,0.31-0.37,0.4-0.58c0.02,0.17-0.03,0.34-0.15,0.5c-0.12,0.16-0.28,0.3-0.47,0.41
				c-0.2,0.11-0.42,0.19-0.66,0.24c-0.24,0.05-0.48,0.05-0.71,0c-0.22-0.04-0.38-0.12-0.48-0.24c-0.1-0.12-0.14-0.27-0.14-0.44
				c0-0.17,0.05-0.37,0.14-0.58c0.09-0.21,0.21-0.43,0.37-0.66c-0.17,0.16-0.33,0.31-0.48,0.47
				C189.34,10.57,189.21,10.73,189.11,10.9z M187.07,11.22c0.05-0.23,0.15-0.45,0.3-0.66c0.15-0.22,0.31-0.43,0.49-0.64
				c0.12-0.14,0.24-0.28,0.37-0.42c0.13-0.14,0.26-0.28,0.38-0.43c-0.33,0.09-0.61,0.22-0.85,0.39c-0.24,0.17-0.43,0.35-0.57,0.54
				c-0.17,0.24-0.27,0.48-0.3,0.72c-0.03,0.24,0.02,0.47,0.14,0.69c0.02-0.04,0.02-0.07,0.02-0.1
				C187.06,11.28,187.06,11.25,187.07,11.22z"/>
		</g>
		<g>
			<path class="st11" d="M191.53,10.1c0.02,0.02,0.03,0.04,0.05,0.06c0.02,0.02,0.04,0.04,0.06,0.06c-0.05,0.04-0.09,0.07-0.15,0.1
				c-0.05,0.03-0.1,0.06-0.14,0.1c-0.03,0.05-0.06,0.11-0.07,0.19c-0.01,0.08-0.01,0.15,0.01,0.21c0.03,0.05,0.09,0.07,0.17,0.06
				c0.08-0.01,0.17-0.03,0.27-0.07c0.01,0,0.03-0.01,0.05-0.02c0.02-0.01,0.04-0.02,0.07-0.02c-0.03-0.05-0.04-0.12-0.03-0.19
				c0.01-0.07,0.03-0.16,0.07-0.25l-0.09-0.09c0.03-0.02,0.06-0.04,0.1-0.06c0.04-0.02,0.07-0.04,0.09-0.07
				c0.08-0.12,0.15-0.23,0.21-0.34c0.06-0.11,0.12-0.2,0.19-0.27c0.07-0.08,0.14-0.14,0.23-0.18c0.08-0.04,0.19-0.07,0.31-0.06
				c-0.05,0.03-0.11,0.09-0.17,0.18c-0.06,0.09-0.12,0.18-0.18,0.27c-0.06,0.09-0.11,0.18-0.15,0.26c-0.04,0.08-0.06,0.13-0.07,0.16
				l0.12,0.11c-0.05,0.04-0.1,0.07-0.15,0.1c-0.05,0.03-0.1,0.06-0.15,0.1c-0.04,0.05-0.06,0.12-0.07,0.2
				c-0.01,0.08,0,0.16,0.02,0.22c0.02,0.03,0.06,0.05,0.11,0.06c0.05,0,0.1,0,0.15-0.02c0.05-0.01,0.09-0.03,0.14-0.05
				c0.05-0.02,0.09-0.04,0.14-0.06l0.21-0.09c0.01,0.04,0.03,0.06,0.04,0.08c-0.01,0-0.02,0-0.04,0.01
				c-0.02,0.01-0.04,0.02-0.06,0.03c-0.02,0.01-0.04,0.02-0.06,0.03c-0.02,0.01-0.03,0.01-0.03,0.01c-0.05,0.02-0.11,0.05-0.16,0.07
				c-0.05,0.02-0.11,0.04-0.16,0.05c-0.1,0.02-0.2,0.02-0.29-0.01c-0.1-0.03-0.16-0.07-0.21-0.13l-0.13,0.05
				c-0.11,0.05-0.22,0.08-0.32,0.09c-0.1,0.01-0.21-0.03-0.33-0.11l-0.01-0.01l-0.01-0.01c-0.08-0.06-0.12-0.13-0.12-0.22
				c0-0.09,0.02-0.2,0.07-0.32l-0.1-0.09c0.03-0.02,0.06-0.04,0.1-0.06c0.04-0.02,0.07-0.04,0.09-0.07
				c0.08-0.12,0.15-0.23,0.21-0.34c0.06-0.1,0.13-0.2,0.19-0.27c0.06-0.08,0.14-0.14,0.22-0.18c0.08-0.04,0.19-0.07,0.31-0.06
				c-0.04,0.03-0.1,0.09-0.16,0.18c-0.06,0.09-0.12,0.18-0.18,0.27c-0.05,0.09-0.1,0.18-0.14,0.26
				C191.56,10.02,191.54,10.08,191.53,10.1z"/>
		</g>
		<g>
			<path class="st11" d="M192.09,8.48c0.23,0.11,0.49,0.16,0.78,0.16c0.29,0,0.6-0.03,0.95-0.08l-0.16,0.23
				c-0.3,0.02-0.58,0-0.84-0.04C192.56,8.71,192.31,8.62,192.09,8.48z M193.9,10.78c-0.08,0.04-0.15,0.07-0.23,0.11
				c-0.07,0.03-0.15,0.06-0.23,0.08c-0.15,0.02-0.27,0.02-0.37-0.01c-0.09-0.03-0.16-0.08-0.2-0.15c-0.04-0.07-0.06-0.14-0.06-0.23
				c0-0.09,0.02-0.18,0.05-0.26l-0.1-0.09c0.03-0.02,0.06-0.04,0.1-0.06c0.04-0.02,0.06-0.04,0.09-0.07
				c0.06-0.12,0.14-0.26,0.25-0.43c0.1-0.17,0.21-0.34,0.33-0.51c0.12-0.17,0.23-0.34,0.34-0.5c0.11-0.16,0.21-0.3,0.29-0.42
				c0.06-0.01,0.12-0.03,0.17-0.04c0.05-0.01,0.1-0.03,0.15-0.05c0.05-0.02,0.1-0.04,0.16-0.07c0.06-0.03,0.12-0.06,0.19-0.11
				l-0.14,0.22l-0.08,0.12c-0.07,0.11-0.17,0.24-0.28,0.39c-0.11,0.15-0.23,0.31-0.34,0.47c-0.12,0.16-0.23,0.32-0.34,0.47
				c-0.11,0.15-0.21,0.28-0.28,0.4c-0.01,0.01-0.01,0.02-0.02,0.03c-0.01,0.01-0.01,0.02-0.01,0.03c0.02,0.02,0.03,0.04,0.05,0.06
				c0.02,0.02,0.04,0.04,0.06,0.06c-0.04,0.03-0.09,0.06-0.15,0.1c-0.05,0.03-0.1,0.06-0.15,0.1c-0.03,0.04-0.05,0.1-0.07,0.16
				c-0.01,0.06-0.01,0.12,0.01,0.17c0.02,0.05,0.05,0.09,0.1,0.12c0.05,0.03,0.13,0.03,0.23,0c0.08-0.02,0.15-0.05,0.22-0.08
				c0.07-0.03,0.14-0.06,0.22-0.1c-0.03-0.12-0.02-0.25,0.03-0.38l-0.09-0.09c0.03-0.02,0.06-0.04,0.09-0.06
				c0.04-0.02,0.07-0.04,0.1-0.07c0.04-0.09,0.11-0.19,0.18-0.31c0.08-0.12,0.16-0.25,0.24-0.37c0.09-0.13,0.17-0.25,0.25-0.36
				c0.08-0.12,0.15-0.21,0.2-0.29l0.23-0.03c0.06-0.01,0.11-0.01,0.16-0.02c0.05-0.01,0.1-0.01,0.15-0.02
				c-0.06,0.08-0.13,0.18-0.22,0.3c-0.09,0.12-0.19,0.25-0.28,0.38c-0.1,0.13-0.19,0.25-0.28,0.38c-0.09,0.12-0.16,0.23-0.22,0.31
				c-0.01,0.01-0.01,0.02-0.02,0.03c-0.01,0.01-0.01,0.02-0.01,0.03c0.02,0.02,0.03,0.04,0.05,0.06c0.02,0.02,0.04,0.04,0.06,0.06
				c-0.04,0.03-0.09,0.06-0.15,0.09c-0.05,0.03-0.1,0.06-0.15,0.1c-0.03,0.04-0.05,0.1-0.06,0.16c-0.01,0.06-0.01,0.12,0.01,0.17
				c0.02,0.05,0.05,0.09,0.1,0.12c0.05,0.03,0.13,0.03,0.23,0c0.1-0.02,0.19-0.06,0.28-0.1c0.09-0.04,0.17-0.08,0.26-0.13l0.07-0.04
				c0.03-0.01,0.05-0.02,0.06-0.01c0.01,0.01,0.02,0.01,0.02,0.03c0,0.01,0,0.03-0.01,0.04c-0.01,0.01-0.02,0.02-0.03,0.03
				c-0.02,0.01-0.03,0.02-0.05,0.02c-0.02,0.01-0.03,0.01-0.03,0.01c-0.09,0.04-0.18,0.09-0.27,0.13c-0.09,0.04-0.18,0.08-0.29,0.1
				c-0.16,0.03-0.29,0.02-0.38-0.02C194,10.92,193.93,10.86,193.9,10.78z M194.64,8.45c0.29-0.05,0.56-0.1,0.81-0.15
				c0.26-0.04,0.49-0.07,0.69-0.07c0.21,0,0.38,0.03,0.51,0.09c0.13,0.06,0.22,0.17,0.27,0.33c-0.13-0.07-0.29-0.11-0.46-0.12
				c-0.18-0.01-0.37-0.01-0.59,0.01c-0.21,0.02-0.44,0.05-0.68,0.09c-0.24,0.04-0.5,0.07-0.76,0.1L194.64,8.45z M195.34,8.23
				c0.08-0.04,0.18-0.09,0.28-0.16c0.1-0.07,0.21-0.14,0.32-0.2c-0.02,0.04-0.05,0.09-0.1,0.14c-0.04,0.05-0.08,0.1-0.1,0.13
				l-0.02,0.04c-0.07,0.01-0.13,0.02-0.19,0.02C195.46,8.21,195.4,8.22,195.34,8.23z"/>
		</g>
		<g>
			<path class="st11" d="M200.54,7.63c-0.03-0.07-0.08-0.12-0.16-0.17c-0.08-0.04-0.19-0.05-0.34-0.03
				c-0.17,0.03-0.35,0.1-0.56,0.22c-0.21,0.12-0.42,0.27-0.63,0.44c-0.21,0.18-0.43,0.38-0.65,0.6c-0.22,0.22-0.42,0.45-0.61,0.69
				c-0.19,0.24-0.36,0.47-0.51,0.71c-0.15,0.24-0.28,0.46-0.37,0.67c-0.09,0.21-0.15,0.39-0.16,0.56c-0.01,0.16,0.02,0.29,0.1,0.38
				c0.13,0.14,0.3,0.2,0.52,0.2c0.21,0,0.43-0.06,0.65-0.17c0.22-0.11,0.43-0.25,0.62-0.44c0.19-0.19,0.34-0.4,0.43-0.63
				c0.02,0.19-0.03,0.36-0.15,0.54c-0.13,0.17-0.29,0.32-0.5,0.44c-0.21,0.12-0.44,0.21-0.7,0.26c-0.26,0.05-0.5,0.05-0.75,0
				c-0.26-0.05-0.44-0.15-0.54-0.3c-0.1-0.15-0.14-0.33-0.11-0.55c0.03-0.21,0.1-0.45,0.23-0.71c0.13-0.26,0.3-0.53,0.5-0.79
				c0.21-0.27,0.44-0.53,0.7-0.79c0.26-0.26,0.54-0.49,0.82-0.7c0.29-0.21,0.58-0.38,0.87-0.52c0.29-0.14,0.58-0.22,0.84-0.25
				c0.44-0.05,0.64,0.06,0.6,0.35h0.01c-0.01,0.15-0.05,0.3-0.13,0.45c-0.08,0.15-0.17,0.29-0.28,0.44
				c-0.11,0.14-0.23,0.27-0.35,0.4c-0.13,0.12-0.25,0.23-0.36,0.33c-0.12,0.11-0.24,0.21-0.37,0.3c-0.12,0.09-0.24,0.17-0.37,0.25
				c-0.24,0.15-0.46,0.24-0.65,0.28c-0.12,0.02-0.21,0.01-0.28-0.02c-0.07-0.04-0.09-0.13-0.04-0.28c0.04-0.13,0.13-0.27,0.25-0.41
				c0.12-0.14,0.26-0.27,0.42-0.41c0.16-0.13,0.33-0.25,0.52-0.37c0.18-0.12,0.36-0.23,0.54-0.32c0.17-0.1,0.33-0.18,0.47-0.24
				c0.14-0.06,0.25-0.11,0.32-0.14c0.02-0.04,0.04-0.08,0.06-0.12C200.5,7.71,200.52,7.67,200.54,7.63L200.54,7.63z M200.36,7.99
				c-0.07,0.03-0.15,0.07-0.23,0.1c-0.08,0.03-0.16,0.07-0.24,0.11c-0.12,0.06-0.26,0.13-0.41,0.22c-0.15,0.08-0.3,0.18-0.45,0.28
				c-0.15,0.1-0.3,0.22-0.45,0.34c-0.15,0.12-0.28,0.25-0.39,0.39c-0.05,0.05-0.09,0.11-0.12,0.16c-0.03,0.05-0.06,0.1-0.07,0.14
				c-0.05,0.1-0.06,0.18-0.03,0.24c0.04,0.09,0.13,0.11,0.25,0.08c0.12-0.04,0.26-0.11,0.42-0.23c0.16-0.11,0.32-0.25,0.5-0.42
				c0.18-0.17,0.34-0.34,0.5-0.51c0.16-0.17,0.31-0.34,0.44-0.5C200.19,8.22,200.29,8.09,200.36,7.99z"/>
		</g>
		<g>
			<path class="st11" d="M199.1,10.91c-0.09-0.07-0.14-0.15-0.15-0.26c-0.01-0.1,0-0.2,0.03-0.3l-0.09-0.09
				c0.03-0.02,0.06-0.04,0.1-0.06c0.04-0.02,0.07-0.04,0.09-0.07c0.04-0.07,0.09-0.14,0.17-0.23c0.08-0.08,0.17-0.16,0.27-0.24
				c0.1-0.08,0.21-0.15,0.32-0.21c0.11-0.06,0.23-0.11,0.34-0.15c0.11-0.03,0.22-0.05,0.31-0.04c0.1,0.01,0.18,0.04,0.25,0.1
				c0.11,0.13,0.16,0.27,0.15,0.41c-0.01,0.15-0.07,0.29-0.16,0.43c-0.09,0.14-0.21,0.27-0.37,0.39c-0.15,0.12-0.3,0.21-0.46,0.29
				c-0.16,0.07-0.31,0.11-0.45,0.12C199.3,11.02,199.18,10.99,199.1,10.91z M199.46,10.17c0.01,0.02,0.03,0.04,0.05,0.06
				c0.02,0.01,0.04,0.03,0.07,0.05c-0.04,0.03-0.09,0.06-0.13,0.08c-0.04,0.03-0.08,0.05-0.12,0.08c-0.04,0.06-0.06,0.13-0.07,0.2
				c-0.01,0.07,0,0.12,0.04,0.17c0.03,0.04,0.08,0.07,0.16,0.07c0.07,0,0.17-0.03,0.3-0.1c0.15-0.08,0.28-0.19,0.39-0.32
				c0.12-0.13,0.21-0.27,0.28-0.4c0.07-0.14,0.11-0.26,0.13-0.37c0.01-0.11-0.01-0.19-0.07-0.24c-0.12,0-0.24,0.03-0.34,0.08
				c-0.11,0.06-0.19,0.12-0.26,0.2c-0.06,0.08-0.1,0.15-0.11,0.23c0,0.08,0.03,0.14,0.11,0.18c0.05,0.03,0.1,0.05,0.17,0.05
				c0.06,0,0.13,0,0.2-0.01c-0.04,0.03-0.09,0.06-0.14,0.08c-0.05,0.02-0.09,0.04-0.14,0.05c-0.06,0.01-0.12,0-0.16-0.03
				c-0.04-0.03-0.07-0.07-0.08-0.12c-0.03-0.08-0.02-0.17,0.01-0.26c0.03-0.09,0.08-0.17,0.15-0.24c-0.1,0.09-0.19,0.18-0.27,0.28
				C199.55,10.04,199.49,10.11,199.46,10.17z M200.28,9.42c0.01,0,0.02,0,0.02-0.01C200.3,9.42,200.29,9.42,200.28,9.42z
				 M200.44,9.42l0.05,0.02C200.48,9.43,200.47,9.43,200.44,9.42z"/>
		</g>
		<g>
			<path class="st11" d="M201.42,10.16c0.02,0.02,0.04,0.04,0.05,0.05c0.02,0.02,0.04,0.04,0.06,0.06c-0.05,0.04-0.1,0.07-0.15,0.1
				c-0.05,0.03-0.1,0.06-0.15,0.1c-0.03,0.05-0.06,0.11-0.07,0.19c-0.01,0.08-0.01,0.15,0.01,0.21c0.03,0.05,0.09,0.07,0.17,0.06
				c0.08-0.01,0.17-0.04,0.27-0.08c0.01,0,0.03-0.01,0.05-0.02c0.02-0.01,0.05-0.02,0.07-0.02c-0.03-0.05-0.04-0.12-0.03-0.19
				c0.01-0.07,0.03-0.16,0.07-0.25l-0.1-0.09c0.03-0.02,0.06-0.04,0.1-0.06c0.04-0.02,0.07-0.04,0.09-0.07
				c0.08-0.12,0.15-0.23,0.21-0.34c0.06-0.11,0.12-0.2,0.19-0.28c0.07-0.08,0.14-0.14,0.23-0.18s0.19-0.07,0.31-0.06
				c-0.05,0.03-0.1,0.09-0.17,0.18c-0.06,0.09-0.12,0.18-0.18,0.27c-0.06,0.09-0.11,0.18-0.15,0.26c-0.04,0.08-0.06,0.14-0.07,0.16
				l0.12,0.11c-0.04,0.04-0.09,0.07-0.15,0.1c-0.05,0.03-0.1,0.06-0.15,0.1c-0.04,0.05-0.06,0.12-0.07,0.2
				c-0.01,0.08,0,0.16,0.02,0.22c0.02,0.03,0.06,0.05,0.11,0.06c0.05,0,0.1,0,0.15-0.02c0.05-0.01,0.09-0.03,0.14-0.05
				c0.05-0.02,0.09-0.04,0.13-0.06l0.21-0.09c0.01,0.04,0.03,0.06,0.04,0.08c0,0-0.02,0-0.04,0.01c-0.02,0.01-0.04,0.02-0.06,0.03
				c-0.02,0.01-0.04,0.02-0.06,0.03c-0.02,0.01-0.03,0.01-0.04,0.01c-0.05,0.02-0.11,0.05-0.16,0.07c-0.05,0.02-0.11,0.04-0.16,0.05
				c-0.1,0.02-0.2,0.02-0.29-0.01c-0.09-0.03-0.16-0.07-0.21-0.13l-0.13,0.05c-0.11,0.05-0.22,0.08-0.32,0.09
				c-0.1,0.01-0.21-0.03-0.33-0.11l-0.01-0.01L201,10.91c-0.08-0.05-0.12-0.13-0.12-0.22c0-0.09,0.02-0.2,0.07-0.32l-0.1-0.09
				c0.03-0.02,0.06-0.04,0.1-0.06c0.04-0.02,0.07-0.04,0.09-0.07c0.08-0.12,0.15-0.23,0.21-0.34c0.06-0.11,0.13-0.2,0.19-0.27
				c0.07-0.08,0.14-0.14,0.22-0.18c0.08-0.04,0.19-0.07,0.31-0.06c-0.04,0.03-0.1,0.09-0.16,0.18c-0.06,0.09-0.12,0.18-0.18,0.27
				c-0.06,0.09-0.1,0.18-0.14,0.26C201.45,10.08,201.43,10.14,201.42,10.16z"/>
		</g>
		<g>
			<path class="st11" d="M201.82,8.78c0.13,0.05,0.27,0.09,0.42,0.1c0.15,0.02,0.31,0.02,0.47,0.02c0.17-0.01,0.33-0.02,0.51-0.05
				c0.17-0.03,0.35-0.06,0.53-0.09l0.25-0.35c0.08-0.12,0.17-0.25,0.24-0.37c0.08-0.12,0.15-0.25,0.21-0.37
				c0.02-0.05,0.04-0.1,0.05-0.15c0.02-0.05,0.03-0.1,0.02-0.15c-0.01-0.02-0.01-0.04-0.02-0.05c0-0.02-0.01-0.04,0-0.05
				c0.03,0,0.06,0.01,0.07,0.03c0.02,0.02,0.03,0.03,0.05,0.04c0.16,0.16,0.26,0.34,0.3,0.55c0.04,0.21,0.02,0.42-0.06,0.63
				c0.23-0.05,0.44-0.09,0.64-0.12c0.2-0.03,0.38-0.04,0.54-0.03c0.16,0.01,0.3,0.04,0.41,0.1c0.11,0.06,0.19,0.15,0.24,0.28
				c-0.09-0.1-0.2-0.17-0.33-0.2c-0.13-0.04-0.28-0.06-0.44-0.05c-0.16,0-0.33,0.02-0.52,0.05c-0.19,0.03-0.38,0.07-0.59,0.12
				c-0.06,0.15-0.16,0.3-0.27,0.43c-0.12,0.14-0.26,0.26-0.42,0.37h-0.01l-0.12,0.08h-0.01c-0.01,0.01-0.04,0.02-0.1,0.04
				c-0.05,0.02-0.11,0.04-0.16,0.07c-0.06,0.02-0.13,0.06-0.22,0.09l-0.23,0.38c-0.01,0.01-0.01,0.02-0.02,0.04
				c-0.01,0.01-0.01,0.02-0.01,0.04l0.11,0.11c-0.04,0.04-0.09,0.07-0.15,0.1c-0.05,0.03-0.1,0.06-0.15,0.1
				c-0.03,0.04-0.05,0.1-0.06,0.16c-0.01,0.06-0.01,0.12,0.01,0.18c0.02,0.05,0.05,0.09,0.1,0.12c0.05,0.03,0.13,0.03,0.23,0
				c0.1-0.03,0.19-0.06,0.28-0.1c0.09-0.04,0.17-0.08,0.26-0.12l0.07-0.04c0.03-0.01,0.05-0.02,0.06-0.02
				c0.01,0,0.02,0.01,0.02,0.02c0,0.01,0,0.03-0.01,0.04c-0.01,0.02-0.02,0.03-0.03,0.03l-0.08,0.04c-0.09,0.04-0.18,0.08-0.27,0.13
				c-0.09,0.05-0.19,0.08-0.29,0.1c-0.15,0.02-0.27,0.02-0.36-0.01c-0.09-0.03-0.16-0.08-0.2-0.15c-0.04-0.07-0.06-0.14-0.06-0.23
				c0-0.09,0.02-0.17,0.05-0.26l-0.09-0.09c0.03-0.02,0.06-0.04,0.1-0.06c0.04-0.02,0.07-0.04,0.09-0.07
				c0.01-0.02,0.02-0.05,0.04-0.09c0.02-0.04,0.04-0.08,0.07-0.13c0.02-0.05,0.04-0.09,0.07-0.13c0.02-0.04,0.04-0.07,0.05-0.09
				h-0.01l0.06-0.08c0.01-0.01,0.01-0.02,0.02-0.03c0-0.01,0-0.02-0.01-0.02c-0.07-0.04-0.13-0.08-0.18-0.13
				c-0.05-0.05-0.08-0.11-0.09-0.18c-0.02-0.11,0.02-0.21,0.13-0.3c-0.22,0.01-0.43,0.01-0.63-0.02
				C202.18,8.93,201.99,8.87,201.82,8.78z M203.64,8.9c-0.06,0.01-0.11,0.02-0.17,0.03c-0.06,0.01-0.12,0.02-0.17,0.02
				c-0.04,0.03-0.09,0.07-0.13,0.1c-0.04,0.04-0.07,0.08-0.09,0.12c-0.04,0.07-0.05,0.14-0.03,0.22c0.02,0.07,0.07,0.13,0.14,0.17
				c0.07-0.11,0.15-0.22,0.22-0.33C203.49,9.12,203.56,9.01,203.64,8.9z M204.68,8.68c-0.07,0.02-0.15,0.04-0.23,0.05
				c-0.08,0.02-0.16,0.04-0.24,0.05c-0.01,0.02-0.02,0.03-0.03,0.05c-0.01,0.01-0.02,0.03-0.03,0.05c-0.08,0.12-0.16,0.24-0.25,0.36
				c-0.09,0.12-0.17,0.24-0.25,0.36c0.22-0.08,0.41-0.19,0.58-0.33c0.16-0.14,0.29-0.29,0.38-0.45
				C204.64,8.76,204.66,8.72,204.68,8.68z M204.32,8.63l0.42-0.1c0.05-0.16,0.07-0.31,0.07-0.47c-0.01-0.16-0.04-0.3-0.11-0.44
				c-0.01,0.03-0.02,0.06-0.01,0.08c0,0.03,0,0.06-0.01,0.08c-0.02,0.14-0.07,0.28-0.14,0.42C204.47,8.35,204.4,8.49,204.32,8.63z"
				/>
		</g>
		<g>
			<path class="st11" d="M207.63,10.68c-0.01,0-0.03,0-0.06,0.02c-0.1,0.05-0.2,0.1-0.3,0.15c-0.1,0.05-0.21,0.09-0.31,0.12
				c-0.05,0.01-0.1,0.02-0.15,0.02c-0.05,0-0.09-0.02-0.12-0.06c-0.02-0.06-0.03-0.13-0.02-0.22c0.01-0.08,0.03-0.15,0.07-0.2
				c0.05-0.04,0.1-0.07,0.15-0.1c0.05-0.03,0.1-0.06,0.15-0.1c-0.02-0.02-0.04-0.04-0.06-0.05c-0.02-0.02-0.04-0.04-0.05-0.06
				c0.01-0.04,0.04-0.11,0.08-0.2c0.04-0.09,0.1-0.17,0.17-0.25c0.08-0.1,0.15-0.18,0.21-0.24c0.07-0.06,0.14-0.12,0.18-0.14
				c0.04-0.01,0.05-0.04,0.04-0.07c-0.01-0.03-0.03-0.04-0.08-0.02c-0.14,0.04-0.25,0.08-0.33,0.12c-0.09,0.03-0.16,0.06-0.21,0.09
				c-0.06,0.02-0.11,0.04-0.16,0.06c-0.05,0.02-0.11,0.03-0.17,0.03c0.04-0.03,0.08-0.06,0.13-0.09c0.05-0.03,0.1-0.06,0.16-0.09
				c0.05-0.03,0.1-0.06,0.14-0.1c0.04-0.03,0.07-0.08,0.09-0.12c0.02-0.05,0.02-0.08-0.02-0.11c-0.01,0-0.01,0-0.01-0.01
				c-0.04-0.03-0.09-0.04-0.15-0.04c-0.08,0-0.18,0.02-0.3,0.06c-0.12,0.04-0.23,0.1-0.32,0.16c-0.1,0.06-0.17,0.13-0.22,0.2
				c-0.05,0.07-0.04,0.13,0.02,0.18c0.04,0.04,0.11,0.07,0.2,0.07c0.04-0.09-0.57,1.07-1.02,1.28c-0.04,0.02-0.1,0.02-0.15,0.02
				c-0.05,0-0.09-0.02-0.11-0.06c-0.02-0.06-0.03-0.13-0.02-0.22c0.01-0.08,0.03-0.15,0.07-0.2c0.05-0.04,0.09-0.07,0.15-0.1
				c0.05-0.03,0.1-0.06,0.15-0.1l-0.11-0.11c0-0.03,0.03-0.08,0.07-0.16c0.04-0.08,0.09-0.17,0.15-0.26
				c0.06-0.09,0.12-0.19,0.18-0.27c0.06-0.09,0.12-0.15,0.17-0.18c-0.12,0-0.23,0.02-0.31,0.06s-0.16,0.11-0.23,0.18
				c-0.07,0.08-0.13,0.17-0.19,0.27c-0.06,0.1-0.13,0.22-0.21,0.34c-0.02,0.03-0.05,0.05-0.09,0.07c-0.04,0.02-0.07,0.04-0.1,0.06
				l0.1,0.09c-0.04,0.09-0.06,0.18-0.07,0.25c-0.01,0.07,0,0.14,0.03,0.19c-0.03,0.01-0.05,0.02-0.07,0.02
				c-0.02,0.01-0.04,0.02-0.05,0.02c-0.1,0.04-0.19,0.06-0.27,0.08c-0.08,0.01-0.14-0.01-0.17-0.06c-0.02-0.06-0.02-0.13-0.01-0.21
				c0.01-0.08,0.04-0.14,0.07-0.19c0.05-0.04,0.09-0.07,0.15-0.1c0.05-0.03,0.1-0.06,0.15-0.1c-0.02-0.02-0.04-0.04-0.06-0.05
				c-0.02-0.02-0.04-0.04-0.05-0.05c0-0.03,0.03-0.08,0.07-0.16c0.04-0.08,0.09-0.17,0.14-0.26c0.06-0.09,0.12-0.18,0.18-0.27
				c0.06-0.09,0.12-0.15,0.16-0.18c-0.12,0-0.23,0.02-0.31,0.06c-0.09,0.04-0.16,0.11-0.22,0.18c-0.06,0.08-0.13,0.17-0.19,0.27
				c-0.06,0.1-0.13,0.22-0.21,0.34c-0.02,0.03-0.05,0.05-0.09,0.07c-0.04,0.02-0.07,0.04-0.09,0.06l0.09,0.09
				c-0.05,0.13-0.07,0.24-0.07,0.32c0,0.09,0.04,0.16,0.12,0.22l0.01,0.01l0.01,0.01c0.12,0.08,0.23,0.11,0.33,0.11
				c0.1-0.01,0.21-0.04,0.32-0.09l0.13-0.05c0.04,0.06,0.11,0.11,0.21,0.13c0.09,0.03,0.19,0.03,0.29,0.01
				c0.03-0.01,0.05-0.01,0.09-0.03c0.38-0.17,0.95-1.14,0.96-1.14c0.06-0.08,0.12-0.15,0.16-0.2c0.1-0.01,0.2-0.02,0.29-0.05
				c0.09-0.03,0.19-0.07,0.28-0.12c-0.08,0.08-0.22,0.19-0.3,0.3c-0.08,0.1-0.19,0.24-0.28,0.37c-0.02,0.03-0.05,0.05-0.09,0.07
				c-0.04,0.02-0.07,0.04-0.1,0.06c0.04,0.03,0.07,0.06,0.1,0.09c-0.04,0.11-0.07,0.21-0.07,0.29c0,0.08,0.02,0.15,0.08,0.21
				c0.04,0.07,0.11,0.11,0.21,0.14c0.1,0.03,0.2,0.03,0.3,0.01c0.1-0.02,0.2-0.06,0.29-0.1c0.09-0.05,0.18-0.09,0.27-0.13
				c0.01,0,0.02-0.01,0.03-0.02c0.01-0.01,0.03-0.01,0.04-0.02c0.01,0,0.02-0.01,0.03-0.03c0.01-0.02,0.01-0.03,0.01-0.04
				C207.65,10.69,207.65,10.68,207.63,10.68z M206.45,9.58c-0.04,0-0.07,0-0.1-0.01c-0.03-0.01-0.05-0.02-0.07-0.04
				c-0.05-0.03-0.07-0.07-0.05-0.1c0.02-0.04,0.06-0.07,0.12-0.1c0.06-0.03,0.13-0.05,0.21-0.07c0.08-0.02,0.14-0.03,0.2-0.03
				c0.06,0,0.1,0,0.12,0.02c0.02,0.02,0.01,0.05-0.04,0.09c-0.06,0.03-0.13,0.06-0.2,0.11C206.57,9.49,206.5,9.53,206.45,9.58z"/>
		</g>
		<g>
			<path class="st11" d="M208.78,10.7c-0.02,0.01-0.05,0.03-0.09,0.05c-0.04,0.02-0.06,0.03-0.06,0.03
				c-0.11,0.05-0.22,0.11-0.33,0.15c-0.11,0.05-0.23,0.08-0.35,0.1c-0.08,0.01-0.15,0.01-0.22,0c-0.07-0.02-0.13-0.04-0.18-0.08
				c-0.09-0.07-0.13-0.15-0.15-0.25c-0.01-0.1,0-0.2,0.03-0.3l-0.09-0.09c0.03-0.02,0.07-0.04,0.1-0.06
				c0.04-0.02,0.06-0.04,0.08-0.07c0.08-0.14,0.19-0.28,0.32-0.41c0.13-0.13,0.29-0.23,0.48-0.32c0.08-0.04,0.17-0.06,0.26-0.09
				c0.09-0.02,0.19-0.03,0.27-0.03c0.09,0,0.17,0.02,0.23,0.05c0.07,0.03,0.11,0.08,0.14,0.14c0.03,0.1,0,0.21-0.09,0.32
				c-0.09,0.12-0.23,0.21-0.41,0.28c-0.12,0.05-0.24,0.07-0.34,0.07c-0.11,0-0.2-0.01-0.28-0.05c0.11,0,0.22-0.02,0.34-0.06
				c0.12-0.04,0.23-0.09,0.33-0.15c0.1-0.06,0.17-0.13,0.22-0.21c0.05-0.08,0.06-0.15,0.04-0.22c-0.02-0.06-0.06-0.09-0.11-0.1
				c-0.05-0.01-0.1,0-0.15,0.02c-0.05,0.02-0.11,0.05-0.17,0.08c-0.06,0.04-0.11,0.07-0.15,0.1c-0.23,0.17-0.41,0.37-0.54,0.59
				c0.01,0.02,0.02,0.04,0.04,0.06c0.02,0.01,0.04,0.03,0.07,0.05c-0.04,0.03-0.09,0.06-0.13,0.08c-0.04,0.03-0.08,0.05-0.12,0.08
				c-0.05,0.08-0.07,0.17-0.06,0.27c0,0.03,0.01,0.07,0.03,0.1c0.02,0.03,0.05,0.06,0.1,0.07c0.05,0.02,0.1,0.02,0.16,0.01
				c0.05-0.01,0.11-0.02,0.16-0.04c0.07-0.03,0.14-0.05,0.21-0.08c0.07-0.03,0.14-0.06,0.2-0.1c0.01,0,0.03-0.02,0.07-0.04
				c0.04-0.02,0.07-0.04,0.09-0.05c0.03-0.02,0.06-0.02,0.07-0.02c0.01,0,0.02,0.01,0.02,0.02c0,0.01,0,0.02-0.02,0.04
				C208.81,10.68,208.79,10.69,208.78,10.7z"/>
		</g>
	</g>
	<g>
		<g>
			<polygon class="st11" points="63.42,12.41 63.42,11.67 61.52,11.14 61.52,12.41 			"/>
			<rect x="57.93" y="11.66" class="st11" width="2.46" height="0.75"/>
			<rect x="54.89" y="11.66" class="st11" width="1.93" height="0.75"/>
			<rect x="54.89" y="7.17" class="st11" width="1.93" height="0.75"/>
			<polygon class="st11" points="60.39,10.87 56.35,9.79 63.42,7.91 63.42,7.17 57.93,7.17 57.93,7.92 60.51,7.92 54.89,9.43 
				54.89,10.15 60.39,11.65 			"/>
			<g>
				<path class="st11" d="M61.13,8.71l-0.55,0.18v3.52c0,0.05-0.01,0.97-0.74,1.33v0.81c0.67-0.19,1.03-0.65,1.23-1.05
					c0.26-0.53,0.26-1.07,0.26-1.09V8.66L61.13,8.71z"/>
				<polygon class="st11" points="57.73,9.95 57.73,9.63 57,9.79 				"/>
				<path class="st11" d="M57.73,8.48V7.16c0-0.15,0.05-1.42,1.42-1.42c1.11,0,1.35,0.84,1.41,1.23l0.75,0.02
					c-0.02-0.2-0.08-0.55-0.25-0.89c-0.25-0.5-0.79-1.1-1.91-1.1c-1.12,0-1.65,0.6-1.91,1.1c-0.26,0.52-0.26,1.04-0.26,1.07v1.53
					L57.73,8.48z"/>
				<path class="st11" d="M57.73,12.41v-1.3l-0.75-0.2v1.51c0,0.02,0,0.56,0.26,1.09c0.19,0.4,0.56,0.86,1.23,1.05v-0.8
					C57.77,13.39,57.73,12.53,57.73,12.41z"/>
			</g>
		</g>
		<g>
			<g>
				<polygon class="st11" points="63.91,10.65 63.91,10.02 63.6,10.34 				"/>
				<polygon class="st11" points="63.88,9.81 63.57,9.49 63.57,10.12 				"/>
				<polygon class="st11" points="63.42,11.05 63.42,10.43 62.05,10 				"/>
				<polygon class="st11" points="63.6,9.27 63.91,9.59 63.91,8.96 				"/>
				<polygon class="st11" points="63.42,9.22 63.42,8.56 62.05,9.61 				"/>
				<polygon class="st11" points="63.42,10.2 63.42,9.41 62.07,9.81 				"/>
				<polygon class="st11" points="63.57,9.06 63.87,8.75 63.57,8.55 				"/>
				<polygon class="st11" points="63.87,10.86 63.57,10.56 63.57,11.06 				"/>
			</g>
		</g>
		
			<rect x="58.82" y="4.67" transform="matrix(0.707 -0.7072 0.7072 0.707 13.7813 43.3227)" class="st11" width="0.72" height="0.72"/>
		
			<rect x="58.82" y="6.82" transform="matrix(0.707 -0.7072 0.7072 0.707 12.2573 43.9533)" class="st11" width="0.72" height="0.72"/>
		
			<rect x="58.82" y="12.04" transform="matrix(0.7074 -0.7068 0.7068 0.7074 8.549 45.4534)" class="st11" width="0.72" height="0.72"/>
	</g>
</g>
</svg>
