<?xml version="1.0" encoding="utf-8"?>
<!-- Generator: Adobe Illustrator 24.2.3, SVG Export Plug-In . SVG Version: 6.00 Build 0)  -->
<svg version="1.1" id="Layer_1" xmlns="http://www.w3.org/2000/svg" xmlns:xlink="http://www.w3.org/1999/xlink" x="0px" y="0px"
	 viewBox="0 0 263.49 18.63" style="enable-background:new 0 0 263.49 18.63;" xml:space="preserve">
<style type="text/css">
	.st0{stroke:#000000;stroke-width:0.2364;stroke-miterlimit:10;}
	.st1{fill:none;stroke:#FFFFFF;stroke-width:0.25;stroke-linecap:round;stroke-miterlimit:10;}
	.st2{fill:none;stroke:#FFFFFF;stroke-width:0.25;stroke-linecap:round;stroke-miterlimit:10;stroke-dasharray:1.0034,0.5017;}
	.st3{fill:none;stroke:#FFFFFF;stroke-width:0.25;stroke-linecap:round;stroke-miterlimit:10;stroke-dasharray:1.0028,0.5014;}
	.st4{fill:url(#SVGID_1_);stroke:#000000;stroke-width:0.25;stroke-miterlimit:10;}
	.st5{fill:url(#SVGID_2_);stroke:#000000;stroke-width:0.25;stroke-miterlimit:10;}
	.st6{clip-path:url(#SVGID_4_);fill:url(#SVGID_5_);stroke:#000000;stroke-width:0.25;stroke-miterlimit:10;}
	.st7{fill:url(#SVGID_6_);stroke:#000000;stroke-width:0.25;stroke-miterlimit:10;}
	.st8{fill:url(#SVGID_7_);}
	.st9{fill:url(#SVGID_8_);stroke:#000000;stroke-width:0.1479;stroke-miterlimit:10;}
	.st10{fill:#FFFFFF;}
	.st11{fill:#A7A9AC;}
	.st12{fill:none;stroke:#FFFFFF;stroke-width:0.25;stroke-linecap:round;stroke-miterlimit:10;stroke-dasharray:1.0036,0.5018;}
	.st13{fill:none;stroke:#FFFFFF;stroke-width:0.25;stroke-linecap:round;stroke-miterlimit:10;stroke-dasharray:1.0027,0.5014;}
	.st14{fill:url(#SVGID_9_);stroke:#000000;stroke-width:0.25;stroke-miterlimit:10;}
	.st15{fill:url(#SVGID_10_);stroke:#000000;stroke-width:0.25;stroke-miterlimit:10;}
	.st16{clip-path:url(#SVGID_12_);fill:url(#SVGID_13_);stroke:#000000;stroke-width:0.25;stroke-miterlimit:10;}
	.st17{fill:url(#SVGID_14_);stroke:#000000;stroke-width:0.25;stroke-miterlimit:10;}
	.st18{fill:url(#SVGID_15_);}
	.st19{fill:url(#SVGID_16_);stroke:#000000;stroke-width:0.1479;stroke-miterlimit:10;}
	.st20{fill:none;stroke:#FFFFFF;stroke-width:0.25;stroke-linecap:round;stroke-miterlimit:10;stroke-dasharray:1.0035,0.5017;}
	.st21{fill:url(#SVGID_17_);stroke:#000000;stroke-width:0.25;stroke-miterlimit:10;}
	.st22{fill:url(#SVGID_18_);stroke:#000000;stroke-width:0.25;stroke-miterlimit:10;}
	.st23{clip-path:url(#SVGID_20_);fill:url(#SVGID_21_);stroke:#000000;stroke-width:0.25;stroke-miterlimit:10;}
	.st24{fill:url(#SVGID_22_);stroke:#000000;stroke-width:0.25;stroke-miterlimit:10;}
	.st25{fill:url(#SVGID_23_);}
	.st26{fill:url(#SVGID_24_);stroke:#000000;stroke-width:0.1479;stroke-miterlimit:10;}
	.st27{fill:url(#SVGID_25_);stroke:#000000;stroke-width:0.25;stroke-miterlimit:10;}
	.st28{fill:url(#SVGID_26_);stroke:#000000;stroke-width:0.25;stroke-miterlimit:10;}
	.st29{clip-path:url(#SVGID_28_);fill:url(#SVGID_29_);stroke:#000000;stroke-width:0.25;stroke-miterlimit:10;}
	.st30{fill:url(#SVGID_30_);stroke:#000000;stroke-width:0.25;stroke-miterlimit:10;}
	.st31{fill:url(#SVGID_31_);}
	.st32{fill:url(#SVGID_32_);stroke:#000000;stroke-width:0.1479;stroke-miterlimit:10;}
	.st33{fill:url(#SVGID_33_);stroke:#000000;stroke-width:0.25;stroke-miterlimit:10;}
	.st34{fill:url(#SVGID_34_);stroke:#000000;stroke-width:0.25;stroke-miterlimit:10;}
	.st35{clip-path:url(#SVGID_36_);fill:url(#SVGID_37_);stroke:#000000;stroke-width:0.25;stroke-miterlimit:10;}
	.st36{fill:url(#SVGID_38_);stroke:#000000;stroke-width:0.25;stroke-miterlimit:10;}
	.st37{fill:url(#SVGID_39_);}
	.st38{fill:url(#SVGID_40_);stroke:#000000;stroke-width:0.1479;stroke-miterlimit:10;}
	.st39{fill:url(#SVGID_41_);stroke:#000000;stroke-width:0.25;stroke-miterlimit:10;}
	.st40{fill:url(#SVGID_42_);stroke:#000000;stroke-width:0.25;stroke-miterlimit:10;}
	.st41{clip-path:url(#SVGID_44_);fill:url(#SVGID_45_);stroke:#000000;stroke-width:0.25;stroke-miterlimit:10;}
	.st42{fill:url(#SVGID_46_);stroke:#000000;stroke-width:0.25;stroke-miterlimit:10;}
	.st43{fill:url(#SVGID_47_);}
	.st44{fill:url(#SVGID_48_);stroke:#000000;stroke-width:0.1479;stroke-miterlimit:10;}
	.st45{fill:none;stroke:#FFFFFF;stroke-width:0.25;stroke-linecap:round;stroke-miterlimit:10;stroke-dasharray:1.0042,0.5021;}
	.st46{fill:url(#SVGID_49_);stroke:#000000;stroke-width:0.25;stroke-miterlimit:10;}
	.st47{fill:url(#SVGID_50_);stroke:#000000;stroke-width:0.25;stroke-miterlimit:10;}
	.st48{clip-path:url(#SVGID_52_);fill:url(#SVGID_53_);stroke:#000000;stroke-width:0.25;stroke-miterlimit:10;}
	.st49{fill:url(#SVGID_54_);stroke:#000000;stroke-width:0.25;stroke-miterlimit:10;}
	.st50{fill:url(#SVGID_55_);}
	.st51{fill:url(#SVGID_56_);stroke:#000000;stroke-width:0.1479;stroke-miterlimit:10;}
	.st52{fill:url(#SVGID_57_);}
	.st53{fill:url(#SVGID_58_);stroke:#000000;stroke-width:0.1479;stroke-miterlimit:10;}
	.st54{fill:none;stroke:#FFFFFF;stroke-width:0.25;stroke-linecap:round;stroke-miterlimit:10;stroke-dasharray:1.0044,0.5022;}
	.st55{fill:url(#SVGID_59_);stroke:#000000;stroke-width:0.25;stroke-miterlimit:10;}
	.st56{fill:url(#SVGID_60_);stroke:#000000;stroke-width:0.25;stroke-miterlimit:10;}
	.st57{clip-path:url(#SVGID_62_);fill:url(#SVGID_63_);stroke:#000000;stroke-width:0.25;stroke-miterlimit:10;}
	.st58{fill:url(#SVGID_64_);stroke:#000000;stroke-width:0.25;stroke-miterlimit:10;}
	.st59{fill:none;stroke:#FFFFFF;stroke-width:0.25;stroke-linecap:round;stroke-miterlimit:10;stroke-dasharray:1.0048,0.5024;}
	.st60{fill:url(#SVGID_65_);stroke:#000000;stroke-width:0.25;stroke-miterlimit:10;}
	.st61{fill:url(#SVGID_66_);stroke:#000000;stroke-width:0.25;stroke-miterlimit:10;}
	.st62{clip-path:url(#SVGID_68_);fill:url(#SVGID_69_);stroke:#000000;stroke-width:0.25;stroke-miterlimit:10;}
	.st63{fill:url(#SVGID_70_);stroke:#000000;stroke-width:0.25;stroke-miterlimit:10;}
	.st64{fill:url(#SVGID_71_);}
	.st65{fill:url(#SVGID_72_);stroke:#000000;stroke-width:0.1479;stroke-miterlimit:10;}
	.st66{fill:url(#SVGID_73_);stroke:#000000;stroke-width:0.25;stroke-miterlimit:10;}
	.st67{fill:url(#SVGID_74_);}
	.st68{fill:url(#SVGID_75_);stroke:#000000;stroke-width:0.1104;stroke-miterlimit:10;}
	.st69{clip-path:url(#SVGID_77_);fill:url(#SVGID_78_);stroke:#000000;stroke-width:0.127;stroke-miterlimit:10;}
	.st70{fill:url(#SVGID_79_);stroke:#000000;stroke-width:0.1248;stroke-miterlimit:10;}
	.st71{fill:url(#SVGID_80_);stroke:#000000;stroke-width:0.25;stroke-miterlimit:10;}
	.st72{fill:url(#SVGID_81_);stroke:#000000;stroke-width:0.25;stroke-miterlimit:10;}
	.st73{fill:url(#SVGID_82_);stroke:#000000;stroke-width:0.25;stroke-miterlimit:10;}
	.st74{clip-path:url(#SVGID_84_);fill:url(#SVGID_85_);stroke:#000000;stroke-width:0.127;stroke-miterlimit:10;}
	.st75{fill:url(#SVGID_86_);stroke:#000000;stroke-width:0.1248;stroke-miterlimit:10;}
	.st76{fill:url(#SVGID_87_);}
	.st77{fill:url(#SVGID_88_);stroke:#000000;stroke-width:0.1104;stroke-miterlimit:10;}
	.st78{fill:url(#SVGID_89_);stroke:#000000;stroke-width:0.25;stroke-miterlimit:10;}
	.st79{fill:url(#SVGID_90_);stroke:#000000;stroke-width:0.25;stroke-miterlimit:10;}
	.st80{clip-path:url(#SVGID_92_);fill:url(#SVGID_93_);stroke:#000000;stroke-width:0.127;stroke-miterlimit:10;}
	.st81{fill:url(#SVGID_94_);stroke:#000000;stroke-width:0.1248;stroke-miterlimit:10;}
	.st82{fill:url(#SVGID_95_);}
	.st83{fill:url(#SVGID_96_);stroke:#000000;stroke-width:0.1104;stroke-miterlimit:10;}
	.st84{fill:none;stroke:#000000;stroke-width:0.25;stroke-miterlimit:10;}
	.st85{fill:none;stroke:#000000;stroke-width:0.25;stroke-linecap:round;}
	.st86{fill:none;stroke:#000000;stroke-width:0.25;stroke-linecap:round;stroke-dasharray:3.3047,1.3073;}
	.st87{fill:none;stroke:#000000;stroke-width:0.25;stroke-linecap:round;stroke-dasharray:2.8051,1.1097;}
	.st88{fill:none;stroke:#000000;stroke-width:0.25;stroke-linecap:round;stroke-dasharray:3.4042,1.3467;}
	.st89{fill:none;stroke:#000000;stroke-width:0.25;stroke-linecap:round;stroke-dasharray:3.4629,1.3699;}
	.st90{fill:none;stroke:#000000;stroke-width:0.25;stroke-linecap:round;stroke-dasharray:2.947,1.1658;}
	.st91{fill:none;stroke:#000000;stroke-width:0.2542;stroke-linecap:round;stroke-dasharray:3.365,1.3312;}
</style>
<g>
	<g>
		
			<linearGradient id="SVGID_1_" gradientUnits="userSpaceOnUse" x1="993.767" y1="-691.0025" x2="993.767" y2="-703.2493" gradientTransform="matrix(6.123234e-17 -1 1 6.123234e-17 704.7896 1002.8333)">
			<stop  offset="0" style="stop-color:#999999"/>
			<stop  offset="0.5828" style="stop-color:#E6E6E6"/>
			<stop  offset="1" style="stop-color:#999999"/>
		</linearGradient>
		<path style="fill:url(#SVGID_1_);" d="M1.89,8.06c-0.46,0.65-0.46,1.37,0,2.02c3.97,0.38,7.93-0.68,11.9-0.25
			c0-0.51,0-1.02,0-1.52C9.82,8.73,5.85,7.68,1.89,8.06z"/>
		
			<linearGradient id="SVGID_2_" gradientUnits="userSpaceOnUse" x1="993.767" y1="-691.0025" x2="993.767" y2="-703.2493" gradientTransform="matrix(6.123234e-17 -1 1 6.123234e-17 704.7896 1002.8333)">
			<stop  offset="0" style="stop-color:#999999"/>
			<stop  offset="0.5828" style="stop-color:#E6E6E6"/>
			<stop  offset="1" style="stop-color:#999999"/>
		</linearGradient>
		<path style="fill:url(#SVGID_2_);stroke:#000000;stroke-width:0.1479;stroke-miterlimit:10;" d="M1.89,8.06
			c-0.46,0.65-0.46,1.37,0,2.02c3.97,0.38,7.93-0.68,11.9-0.25c0-0.51,0-1.02,0-1.52C9.82,8.73,5.85,7.68,1.89,8.06z"/>
	</g>
	<g>
		<path class="st0" d="M10.61,3.13h27.08h216.64c6.02,0,9.03,6.02,9.03,6.02s-3.01,6.02-9.03,6.02H37.69H10.61V3.13z"/>
		<g>
			<g>
				<path class="st1" d="M262.23,8.73c0.11,0.16,0.19,0.3,0.26,0.42c-0.07,0.12-0.16,0.26-0.26,0.42"/>
				<path class="st54" d="M261.95,9.98c-1.17,1.64-3.74,4.43-7.62,4.43H12.12"/>
				<polyline class="st1" points="11.87,14.41 11.36,14.41 11.36,13.91 				"/>
				<line class="st3" x1="11.36" y1="13.41" x2="11.36" y2="4.64"/>
				<polyline class="st1" points="11.36,4.39 11.36,3.88 11.87,3.88 				"/>
				<path class="st54" d="M12.37,3.88h241.96c4.04,0,6.66,3.03,7.76,4.64"/>
			</g>
		</g>
		
			<radialGradient id="SVGID_4_" cx="993.684" cy="-686.5733" r="2.1729" gradientTransform="matrix(6.123234e-17 -1 1 6.123234e-17 704.7896 1002.8333)" gradientUnits="userSpaceOnUse">
			<stop  offset="0" style="stop-color:#E6E6E6"/>
			<stop  offset="1" style="stop-color:#999999"/>
		</radialGradient>
		<path style="fill:url(#SVGID_4_);stroke:#000000;stroke-width:0.25;stroke-miterlimit:10;" d="M18.22,6.98
			c1.2,0,2.17,0.97,2.17,2.17c0,1.2-0.97,2.17-2.17,2.17c-1.2,0-2.17-0.97-2.17-2.17C16.04,7.95,17.02,6.98,18.22,6.98z"/>
		
			<radialGradient id="SVGID_5_" cx="993.684" cy="-671.866" r="2.1727" gradientTransform="matrix(6.123234e-17 -1 1 6.123234e-17 704.7896 1002.8333)" gradientUnits="userSpaceOnUse">
			<stop  offset="0" style="stop-color:#E6E6E6"/>
			<stop  offset="1" style="stop-color:#999999"/>
		</radialGradient>
		<path style="fill:url(#SVGID_5_);stroke:#000000;stroke-width:0.25;stroke-miterlimit:10;" d="M32.92,6.98
			c1.2,0,2.17,0.97,2.17,2.17c0,1.2-0.97,2.17-2.17,2.17c-1.2,0-2.17-0.97-2.17-2.17C30.75,7.95,31.72,6.98,32.92,6.98z"/>
		<g>
			<defs>
				<polygon id="SVGID_61_" points="23.94,3.02 27.91,3.02 27.91,15.26 23.94,15.26 23.94,18.63 39.73,18.63 39.73,0 23.94,0 				
					"/>
			</defs>
			<clipPath id="SVGID_6_">
				<use xlink:href="#SVGID_61_"  style="overflow:visible;"/>
			</clipPath>
			
				<linearGradient id="SVGID_7_" gradientUnits="userSpaceOnUse" x1="993.6839" y1="-666.212" x2="993.6839" y2="-680.3511" gradientTransform="matrix(6.123234e-17 -1 1 6.123234e-17 704.7896 1002.8333)">
				<stop  offset="0" style="stop-color:#999999"/>
				<stop  offset="0.5828" style="stop-color:#E6E6E6"/>
				<stop  offset="1" style="stop-color:#999999"/>
			</linearGradient>
			<path style="clip-path:url(#SVGID_6_);fill:url(#SVGID_7_);stroke:#000000;stroke-width:0.25;stroke-miterlimit:10;" d="
				M38.58,9.15c0-4.34-3.52-7.85-7.85-7.85h-3.14c-1.73,0-3.14,1.41-3.14,3.14v9.43c0,1.73,1.41,3.14,3.14,3.14h3.14
				C35.06,17,38.58,13.49,38.58,9.15z M28.27,15.43c-1.24,0-2.26-1.02-2.26-2.26V5.13c0-1.24,1.02-2.26,2.26-2.26h2.45
				c3.47,0,6.28,2.81,6.28,6.28c0,3.47-2.81,6.29-6.28,6.29H28.27z"/>
		</g>
		
			<linearGradient id="SVGID_8_" gradientUnits="userSpaceOnUse" x1="993.7032" y1="-679.483" x2="993.7032" y2="-704.6646" gradientTransform="matrix(6.123234e-17 -1 1 6.123234e-17 704.7896 1002.8333)">
			<stop  offset="0" style="stop-color:#999999"/>
			<stop  offset="0.5828" style="stop-color:#E6E6E6"/>
			<stop  offset="1" style="stop-color:#999999"/>
		</linearGradient>
		<path style="fill:url(#SVGID_8_);stroke:#000000;stroke-width:0.25;stroke-miterlimit:10;" d="M1.69,1.21
			C0.83,1.32,0.13,2.13,0.13,2.97c0,4.11,0,8.21,0,12.32c0,0.84,0.7,1.64,1.57,1.76c7.32,0.97,14.73,0.97,22.05,0
			c0.86-0.12,1.57-0.92,1.57-1.76c0-4.11,0-8.22,0-12.32c0-0.84-0.7-1.64-1.57-1.76C16.43,0.23,9.01,0.23,1.69,1.21z M21.77,2.84
			c0.43,0,0.79,0.35,0.79,0.79v11.02c0,0.43-0.35,0.79-0.79,0.79H3.67c-0.43,0-0.79-0.35-0.79-0.79V3.62c0-0.43,0.35-0.79,0.79-0.79
			H21.77z"/>
		<path class="st10" d="M227.21,8.4c0.41,0,0.75,0.34,0.75,0.75c0,0.42-0.34,0.75-0.75,0.75c-0.42,0-0.75-0.34-0.75-0.75
			C226.46,8.73,226.8,8.4,227.21,8.4z"/>
		<path class="st10" d="M215.18,8.4c0.41,0,0.75,0.34,0.75,0.75c0,0.42-0.34,0.75-0.75,0.75c-0.42,0-0.75-0.34-0.75-0.75
			C214.43,8.73,214.76,8.4,215.18,8.4z"/>
		<path class="st10" d="M203.15,8.4c0.41,0,0.75,0.34,0.75,0.75c0,0.42-0.34,0.75-0.75,0.75c-0.42,0-0.75-0.34-0.75-0.75
			C202.39,8.73,202.73,8.4,203.15,8.4z"/>
		<path class="st10" d="M191.11,8.4c0.42,0,0.75,0.34,0.75,0.75c0,0.42-0.34,0.75-0.75,0.75c-0.41,0-0.75-0.34-0.75-0.75
			C190.36,8.73,190.7,8.4,191.11,8.4z"/>
		<g>
			<g>
				<polygon class="st11" points="46.97,11.36 46.97,10.75 45.39,10.31 45.39,11.36 				"/>
				<rect x="42.41" y="10.74" class="st11" width="2.04" height="0.62"/>
				<rect x="39.89" y="10.74" class="st11" width="1.6" height="0.62"/>
				<rect x="39.89" y="7.02" class="st11" width="1.6" height="0.62"/>
				<polygon class="st11" points="44.46,10.08 41.1,9.19 46.97,7.63 46.97,7.02 42.41,7.02 42.41,7.64 44.55,7.64 39.89,8.89 
					39.89,9.49 44.46,10.73 				"/>
				<g>
					<path class="st11" d="M45.07,8.29l-0.46,0.15v2.92c0,0.04-0.01,0.8-0.61,1.1v0.67c0.56-0.16,0.86-0.54,1.02-0.87
						c0.21-0.44,0.22-0.88,0.22-0.9V8.25L45.07,8.29z"/>
					<polygon class="st11" points="42.25,9.32 42.25,9.06 41.64,9.19 					"/>
					<path class="st11" d="M42.25,8.1V7c0-0.12,0.04-1.18,1.18-1.18c0.92,0,1.12,0.69,1.17,1.02l0.63,0.01
						c-0.02-0.17-0.07-0.45-0.21-0.74C44.8,5.7,44.36,5.2,43.43,5.2s-1.37,0.5-1.58,0.92C41.63,6.55,41.63,6.98,41.63,7v1.27
						L42.25,8.1z"/>
					<path class="st11" d="M42.25,11.36v-1.08l-0.62-0.17v1.25c0,0.02,0,0.46,0.22,0.9c0.16,0.33,0.46,0.71,1.02,0.87v-0.67
						C42.28,12.18,42.25,11.46,42.25,11.36z"/>
				</g>
			</g>
			<g>
				<g>
					<polygon class="st11" points="47.38,9.9 47.38,9.38 47.12,9.64 					"/>
					<polygon class="st11" points="47.35,9.2 47.09,8.94 47.09,9.46 					"/>
					<polygon class="st11" points="46.97,10.24 46.97,9.72 45.83,9.37 					"/>
					<polygon class="st11" points="47.12,8.76 47.38,9.02 47.38,8.5 					"/>
					<polygon class="st11" points="46.97,8.71 46.97,8.17 45.83,9.04 					"/>
					<polygon class="st11" points="46.97,9.53 46.97,8.87 45.85,9.2 					"/>
					<polygon class="st11" points="47.09,8.58 47.34,8.33 47.09,8.16 					"/>
					<polygon class="st11" points="47.34,10.08 47.09,9.83 47.09,10.24 					"/>
				</g>
			</g>
			
				<rect x="43.15" y="4.93" transform="matrix(0.7067 -0.7075 0.7075 0.7067 9.0399 32.2766)" class="st11" width="0.6" height="0.6"/>
			
				<rect x="43.15" y="6.72" transform="matrix(0.7059 -0.7083 0.7083 0.7059 7.8044 32.8423)" class="st11" width="0.6" height="0.6"/>
			
				<rect x="43.15" y="11.05" transform="matrix(0.7067 -0.7075 0.7075 0.7067 4.7104 34.0714)" class="st11" width="0.6" height="0.6"/>
		</g>
	</g>
</g>
</svg>
