<svg width="228" height="47" viewBox="0 0 228 47" fill="none" xmlns="http://www.w3.org/2000/svg">
<g clip-path="url(#clip0)">
<path d="M24.25 36.9399C24.063 37.3449 23.8018 37.7112 23.48 38.0199C23.3 38.2399 23.16 38.3499 23.06 38.3399C22.96 38.3299 22.88 38.2499 22.81 38.0699C22.2027 35.1067 21.868 32.0942 21.81 29.0699C21.7611 25.9789 22.3642 22.9122 23.58 20.0699C22.58 21.1899 21.5 22.4599 20.25 23.8799C19 25.2999 17.73 26.7899 16.41 28.3599C15.09 29.9299 13.8 31.5099 12.52 33.1199C11.24 34.7299 10.12 36.2699 9.12997 37.7599C8.24431 39.0721 7.47155 40.4571 6.81997 41.8999C6.32096 42.8721 6.08645 43.9585 6.13997 45.0499C6.20173 45.2618 6.27859 45.469 6.36997 45.6699C6.4124 45.7813 6.42727 45.9013 6.41334 46.0197C6.39942 46.1381 6.35709 46.2514 6.28997 46.3499C5.93055 46.3459 5.58122 46.2306 5.28997 46.0199C5.05936 45.8246 4.81905 45.6411 4.56997 45.4699C3.40454 44.5449 2.42406 43.4084 1.67997 42.1199C1.01309 40.9437 0.578541 39.6502 0.39997 38.3099C0.232245 36.9765 0.289709 35.6243 0.569968 34.3099C0.864064 32.8701 1.36954 31.4818 2.06997 30.1899C3.1598 28.229 4.54998 26.4508 6.18997 24.9199C8.11642 23.1224 10.2758 21.5921 12.61 20.3699L14.38 19.5199C15.38 19.1199 16.38 18.7399 17.38 18.3699C18.4121 17.9827 19.4635 17.6489 20.53 17.3699C21.53 16.3699 22.53 15.2899 23.44 14.2699C24.35 13.2499 25.27 12.2099 26.13 11.1599L26.46 10.7599C26.55 10.6299 26.63 10.4899 26.71 10.3499C26.4576 10.0976 26.1905 9.86052 25.91 9.63993L25.02 8.97993C25.73 8.58993 26.44 8.19993 27.17 7.82993C27.9 7.45993 28.6 7.06993 29.31 6.66993C30.64 5.15993 31.31 4.08993 31.31 3.45993C31.31 2.82993 30.9 2.50993 30.11 2.52993C29.0497 2.60631 28.0108 2.86687 27.04 3.29993C25.7799 3.79745 24.5845 4.44549 23.48 5.22993C22.4415 5.9433 21.5233 6.8176 20.76 7.81993C20.4369 8.17048 20.2173 8.60368 20.1256 9.07146C20.0338 9.53923 20.0734 10.0233 20.24 10.4699C19.9988 10.579 19.7272 10.6007 19.4717 10.5313C19.2163 10.462 18.9929 10.3059 18.84 10.0899C18.3875 9.51529 18.116 8.81916 18.06 8.08993C17.9628 7.15974 18.0442 6.21954 18.3 5.31993C18.6258 4.28043 19.2109 3.34096 20 2.58993C20.9572 1.64988 22.1218 0.947702 23.4 0.539927C25.212 -0.0112244 27.116 -0.194817 29 -7.33957e-05C30.1129 0.0395193 31.1973 0.363105 32.15 0.939926C32.8533 1.38858 33.3987 2.04592 33.71 2.81993C34.0019 3.5982 34.088 4.43863 33.96 5.25993C33.8301 6.17764 33.5461 7.06681 33.12 7.88993C33.3963 8.10941 33.6986 8.29413 34.02 8.43993C34.3429 8.58273 34.6456 8.76767 34.92 8.98993C34.92 8.98993 34.99 8.98993 34.98 9.03993L34.71 9.14993L34.43 9.24993C33.2435 10.1085 32.2092 11.1597 31.37 12.3599C30.3183 13.8262 29.3917 15.3784 28.6 16.9999C27.7219 18.7586 26.9506 20.5686 26.29 22.4199C25.6313 24.2198 25.077 26.0562 24.63 27.9199C24.2354 29.5325 23.9481 31.1694 23.77 32.8199C23.6068 34.0227 23.627 35.2432 23.83 36.4399C24.7649 34.7787 25.8246 33.1908 27 31.6899C28.31 30.0299 29.73 28.3899 31.25 26.7499C32.77 25.1099 34.37 23.5399 36.02 22.0299C37.67 20.5199 39.26 19.1699 40.78 17.9799C42.6192 16.2148 44.5485 14.5459 46.56 12.9799C48.5282 11.4295 50.596 10.0098 52.75 8.72993C54.7521 7.53967 56.8453 6.50978 59.01 5.64993C60.9287 4.86033 62.9481 4.34201 65.01 4.10993C70.01 3.52326 71.7466 5.14326 70.22 8.96993C69.99 9.46993 69.85 9.70993 69.81 9.66993C69.7304 9.50771 69.6861 9.33049 69.68 9.14993C69.6085 8.74843 69.515 8.35116 69.4 7.95993C69.2488 7.44764 68.9897 6.97367 68.64 6.56993C68.2285 6.11056 67.7047 5.76597 67.12 5.56993C66.2598 5.32038 65.3489 5.30313 64.48 5.51993C62.648 5.89468 60.8909 6.57051 59.28 7.51993C57.2047 8.71322 55.2284 10.0709 53.37 11.5799C51.2377 13.3042 49.1982 15.1401 47.26 17.0799C45.2553 19.0868 43.3561 21.1963 41.57 23.3999C39.8033 25.5799 38.2 27.7499 36.76 29.9099C35.4449 31.8347 34.3037 33.8728 33.35 35.9999C32.5918 37.6165 32.1021 39.3458 31.9 41.1199C31.7961 41.7332 31.8321 42.3619 32.0053 42.9593C32.1784 43.5567 32.4843 44.1073 32.9 44.5699C33.5301 45.1907 34.2844 45.6711 35.1134 45.9796C35.9424 46.2881 36.8273 46.4177 37.71 46.3599C39.8264 46.2879 41.9043 45.7735 43.81 44.8499C45.9512 43.8518 47.9087 42.4995 49.6 40.8499C51.312 39.2149 52.673 37.2482 53.6 35.0699C53.7907 36.8358 53.2808 38.606 52.18 39.9999C50.9086 41.6642 49.3088 43.0495 47.48 44.0699C45.4442 45.2326 43.2315 46.0535 40.93 46.4999C38.6237 47.0024 36.2362 47.0024 33.93 46.4999C32.0942 46.2665 30.4041 45.3789 29.17 43.9999C28.1817 42.765 27.6833 41.2092 27.77 39.6299C27.8763 37.6323 28.3545 35.6721 29.18 33.8499C30.176 31.55 31.4058 29.3584 32.85 27.3099C31.17 28.8499 29.57 30.4199 28.05 31.9999C26.6081 33.5041 25.3339 35.1605 24.25 36.9399ZM3.99997 39.9999C4.56949 37.6348 5.58794 35.401 6.99997 33.4199C8.48664 31.2799 10.1166 29.1633 11.89 27.0699C13.06 25.6599 14.29 24.2699 15.58 22.8799C16.87 21.4899 18.12 20.0899 19.34 18.6499C16.3109 19.4684 13.4409 20.7901 10.85 22.5599C8.67637 24.0349 6.77489 25.8755 5.22997 27.9999C3.65972 30.1181 2.64859 32.5977 2.28997 35.2099C2.00954 37.5639 2.49708 39.9455 3.67997 41.9999C3.82784 41.6878 3.8998 41.3452 3.88997 40.9999C3.85849 40.6626 3.89592 40.3224 3.99997 39.9999Z" fill="#231F20"/>
<path d="M48.32 29C48.49 29.18 48.66 29.36 48.85 29.54L49.46 30.09C49.0011 30.4575 48.5165 30.7916 48.01 31.09C47.5026 31.392 47.0149 31.726 46.55 32.09C46.1913 32.6571 45.9594 33.295 45.87 33.96C45.757 34.641 45.8014 35.3389 46 36C46.1864 36.2637 46.4501 36.463 46.7545 36.5704C47.059 36.6779 47.3894 36.6882 47.7 36.6C48.6191 36.474 49.5171 36.2251 50.37 35.86C50.47 35.86 50.63 35.76 50.84 35.67C51.0673 35.5735 51.3012 35.4933 51.54 35.43C51.2341 34.8468 51.1287 34.1791 51.24 33.53C51.3683 32.6773 51.5931 31.842 51.91 31.04L50.91 30.11C51.2239 29.8735 51.5586 29.666 51.91 29.49C52.2494 29.3155 52.5597 29.0895 52.83 28.82C53.6167 27.6267 54.3066 26.5067 54.9 25.46C55.438 24.4928 56.0711 23.5816 56.79 22.74C57.4243 21.9935 58.1904 21.3698 59.05 20.9C60.0053 20.4303 61.0683 20.2233 62.13 20.3C61.4738 20.7884 60.9114 21.3914 60.47 22.08C59.8633 22.94 59.2733 23.84 58.7 24.78C58.12 25.72 57.63 26.59 57.23 27.4C56.9495 27.9089 56.7217 28.445 56.55 29L57.69 30.09C57.2327 30.4596 56.7479 30.7938 56.24 31.09C55.7325 31.3918 55.2448 31.7259 54.78 32.09C54.3767 32.6845 54.1354 33.3738 54.08 34.09C53.9771 34.8205 54.0526 35.565 54.3 36.26C54.4208 36.4359 54.584 36.5785 54.7746 36.6746C54.9651 36.7707 55.1767 36.8173 55.39 36.81C55.895 36.8525 56.4034 36.8016 56.89 36.66C57.35 36.52 57.82 36.36 58.29 36.2C58.7496 36.0461 59.1975 35.8589 59.63 35.64L61.7 34.73C61.7845 35.0023 61.9128 35.259 62.08 35.49C61.9579 35.5219 61.8403 35.5689 61.73 35.63L61.13 35.92L60.53 36.22C60.4203 36.2802 60.3024 36.324 60.18 36.35C59.64 36.6 59.11 36.82 58.59 37.02C58.0559 37.2184 57.5119 37.3886 56.96 37.53C55.9911 37.7395 54.986 37.712 54.03 37.45C53.2243 37.2743 52.5058 36.8213 52 36.17L50.73 36.71C49.7383 37.177 48.6719 37.4647 47.58 37.56C46.4002 37.5647 45.249 37.1973 44.29 36.51L44.23 36.45L44.16 36.4C43.7995 36.1701 43.5038 35.8519 43.3008 35.4757C43.0978 35.0994 42.9942 34.6775 43 34.25C43.0442 33.1419 43.2776 32.0495 43.69 31.02L42.74 30.09C43.0436 29.864 43.3609 29.6569 43.69 29.47C44.0193 29.2937 44.3195 29.0677 44.58 28.8C45.36 27.61 46.07 26.49 46.68 25.45C47.2365 24.4913 47.8685 23.5784 48.57 22.72C49.1868 21.9677 49.9442 21.3427 50.8 20.88C51.7566 20.4144 52.8185 20.2075 53.88 20.28C53.2544 20.7924 52.7055 21.3918 52.25 22.06C51.62 22.92 51.03 23.83 50.48 24.76C49.93 25.69 49.48 26.58 49.04 27.39C48.7396 27.8976 48.498 28.4377 48.32 29Z" fill="#231F20"/>
<path d="M53.83 12.84C56.2672 13.9234 58.9134 14.4561 61.58 14.4C64.7268 14.358 67.8672 14.1041 70.9799 13.64L69.42 15.91C66.628 16.082 63.8258 15.958 61.06 15.54C58.4981 15.1157 56.0428 14.1988 53.83 12.84V12.84ZM71.83 35.74L69.59 36.74C68.8416 37.0844 68.0566 37.3427 67.25 37.51C66.0529 37.7696 64.8108 37.7353 63.63 37.41C62.8088 37.1867 62.0976 36.671 61.63 35.96C61.2094 35.2644 60.9977 34.4626 61.02 33.65C61.0237 32.7491 61.1967 31.857 61.53 31.02L60.59 30.09C60.8861 29.8671 61.2005 29.6698 61.53 29.5C61.8712 29.3297 62.1741 29.0915 62.42 28.8C63.01 27.61 63.83 26.2 64.86 24.56C65.89 22.92 66.99 21.23 68.14 19.5C69.29 17.77 70.43 16.1 71.55 14.5C72.67 12.9 73.63 11.5 74.42 10.36C75.0333 10.22 75.5833 10.08 76.07 9.94C76.56 9.8 77.07 9.64 77.55 9.46C78.03 9.28 78.55 9.06 79.13 8.79C79.71 8.52 80.3299 8.17 81.0399 7.79L79.69 10L78.8999 11.18C78.1799 12.27 77.2699 13.57 76.1499 15.1C75.0299 16.63 73.9 18.2 72.75 19.81C71.6 21.42 70.47 22.97 69.35 24.48C68.23 25.99 67.35 27.31 66.6 28.48L66.39 28.8C66.3282 28.9008 66.2874 29.0131 66.27 29.13L66.8 29.7C66.9852 29.905 67.1858 30.0955 67.3999 30.27C66.9342 30.6096 66.4501 30.9235 65.95 31.21C65.4442 31.5096 64.9598 31.8438 64.5 32.21C64.1623 32.6879 63.9336 33.2341 63.83 33.81C63.6909 34.3852 63.7152 34.9878 63.8999 35.55C64.0702 36.0668 64.4266 36.5017 64.8999 36.77C65.2548 36.918 65.6355 36.9942 66.02 36.9942C66.4044 36.9942 66.7851 36.918 67.14 36.77C67.8863 36.5584 68.6179 36.2979 69.33 35.99C70.02 35.69 70.7299 35.36 71.4799 34.99C71.1991 33.7186 71.3179 32.3914 71.82 31.19L70.88 30.26C71.1761 30.0371 71.4905 29.8398 71.82 29.67C72.1887 29.4919 72.5264 29.2556 72.82 28.97C73.26 28.11 73.82 27.07 74.63 25.86C75.44 24.65 76.21 23.42 77.06 22.16C77.91 20.9 78.75 19.69 79.58 18.54C80.41 17.39 81.08 16.43 81.58 15.67L83.84 15.36L85.39 15.15L86.86 14.94C86.28 15.73 85.5399 16.73 84.6199 17.94L81.83 21.67L79.06 25.43C78.17 26.65 77.44 27.68 76.86 28.51L76.6499 28.83C76.5882 28.9308 76.5474 29.0431 76.53 29.16L77.05 29.73C77.2411 29.9326 77.4449 30.123 77.66 30.3C77.1942 30.6396 76.7101 30.9535 76.21 31.24C75.7042 31.5396 75.2197 31.8738 74.7599 32.24C74.4227 32.715 74.2033 33.2634 74.1199 33.84C74.0138 34.4152 74.0412 35.0071 74.2 35.57C74.274 35.8323 74.4009 36.0768 74.5729 36.2883C74.7449 36.4998 74.9582 36.674 75.2 36.8C75.5543 36.9502 75.9351 37.0276 76.32 37.0276C76.7048 37.0276 77.0857 36.9502 77.44 36.8C78.3849 36.5606 79.3029 36.2255 80.1799 35.8L82.74 34.54L83.47 34.16C83.74 34.02 83.93 33.97 84.05 34.03C84.1041 34.0548 84.1515 34.0923 84.188 34.1393C84.2246 34.1863 84.2493 34.2414 84.2599 34.3C84.2785 34.4458 84.239 34.5931 84.1499 34.71C84.0773 34.8264 83.9733 34.92 83.85 34.98L83.3699 35.22C83.2716 35.2816 83.1634 35.3256 83.05 35.35C82.14 35.78 81.25 36.22 80.36 36.67C79.4578 37.1265 78.4996 37.4627 77.5099 37.67C76.2566 37.9729 74.9433 37.9174 73.72 37.51C72.8889 37.1838 72.2156 36.5499 71.84 35.74H71.83ZM79.17 12.55C82.01 12.0167 84.7033 11.5333 87.25 11.1C89.5206 10.6864 91.8221 10.4656 94.13 10.44C95.8668 10.374 97.5971 10.688 99.2 11.36C99.8628 11.6654 100.447 12.1192 100.906 12.6862C101.366 13.2532 101.688 13.9183 101.85 14.63C100.416 13.904 98.8453 13.4883 97.24 13.41C95.293 13.2968 93.34 13.3403 91.3999 13.54C89.2799 13.74 87.02 14.03 84.6 14.4C82.18 14.77 79.68 15.1 77.07 15.4L79.17 12.55ZM86.09 10.36C87.0658 9.89478 88.0051 9.35658 88.8999 8.75C89.8999 8.07 90.97 7.41 92.06 6.75C91.7774 7.24471 91.4421 7.7074 91.06 8.13C90.64 8.65 90.29 9.13 90.06 9.45L89.85 9.83L87.97 10.06L86.09 10.36Z" fill="#231F20"/>
<path d="M137.85 4.3901C137.522 3.69074 136.974 3.11815 136.29 2.7601C135.243 2.28194 134.063 2.17951 132.95 2.4701C130.985 2.86721 129.106 3.60862 127.4 4.6601C125.195 5.95469 123.101 7.42973 121.14 9.0701C118.891 10.9573 116.741 12.96 114.7 15.0701C112.533 17.2901 110.507 19.5668 108.62 21.9001C106.794 24.1646 105.085 26.521 103.5 28.9601C102.114 31.0725 100.894 33.2892 99.85 35.5901C99.0279 37.3331 98.491 39.1968 98.26 41.1101C98.1398 41.7702 98.1672 42.4488 98.3401 43.0971C98.513 43.7454 98.8271 44.3474 99.26 44.8601C99.9168 45.5426 100.714 46.0748 101.596 46.4201C102.478 46.7653 103.424 46.9154 104.37 46.8601C106.618 46.7878 108.823 46.2246 110.83 45.2101C113.116 44.069 115.2 42.5625 117 40.7501C118.857 38.9869 120.319 36.8499 121.29 34.4801C121.5 36.3872 120.955 38.3008 119.77 39.8101C118.433 41.6139 116.729 43.1136 114.77 44.2101C112.596 45.4609 110.231 46.346 107.77 46.8301C105.321 47.3552 102.789 47.3552 100.34 46.8301C97.77 46.3401 95.99 45.3501 95 43.8301C94.0185 42.1978 93.6632 40.2647 94 38.3901C94.3688 35.9085 95.1566 33.5077 96.33 31.2901C97.7407 28.5064 99.4151 25.8643 101.33 23.4001C103.471 20.6246 105.811 18.0078 108.33 15.5701C110.883 13.0585 113.62 10.742 116.52 8.6401C119.239 6.65305 122.138 4.92548 125.18 3.4801C127.802 2.21217 130.611 1.37479 133.5 1.0001C137.847 0.480099 139.847 1.6301 139.5 4.4501H139.57C139.451 6.00635 139.011 7.52124 138.28 8.9001C137.49 10.4169 136.57 11.8623 135.53 13.2201C134.465 14.6206 133.295 15.9378 132.03 17.1601C130.77 18.3901 129.6 19.4801 128.5 20.4601C127.4 21.4401 126.08 22.5201 124.88 23.4601C123.68 24.4001 122.47 25.1801 121.26 25.9401C119.292 27.2217 117.121 28.1616 114.84 28.7201C113.92 28.9538 112.948 28.8728 112.08 28.4901C111.36 28.1201 111.22 27.1801 111.67 25.6601C112.2 24.1471 113.033 22.7586 114.12 21.5801C115.406 20.1284 116.814 18.7901 118.33 17.5801C119.973 16.2489 121.689 15.0103 123.47 13.8701C125.32 12.6801 127.09 11.6201 128.79 10.6701C130.49 9.7201 132.05 8.9201 133.46 8.2801C134.87 7.6401 135.94 7.1701 136.67 6.8901C136.89 6.4901 137.09 6.0901 137.28 5.6901C137.47 5.2901 137.64 4.9001 137.81 4.5001L137.85 4.3901ZM136 8.0001L133.7 9.0001C132.91 9.3401 132.11 9.7101 131.31 10.1001C130.08 10.7101 128.72 11.4201 127.24 12.2501C125.76 13.0801 124.24 13.9901 122.73 15.0201C121.18 16.0586 119.688 17.1802 118.26 18.3801C116.856 19.5517 115.567 20.8542 114.41 22.2701C113.967 22.7543 113.572 23.2801 113.23 23.8401C112.948 24.2824 112.71 24.7513 112.52 25.2401C112.303 25.5849 112.162 25.972 112.107 26.3755C112.052 26.7791 112.084 27.1898 112.2 27.5801C112.64 28.4401 113.45 28.6901 114.65 28.3201C116.133 27.7924 117.524 27.0329 118.77 26.0701C120.526 24.7876 122.196 23.3912 123.77 21.8901C125.523 20.2301 127.19 18.5368 128.77 16.8101C130.36 15.0901 131.77 13.4301 133.1 11.8101C134.43 10.1901 135.34 9.0001 136 8.0001Z" fill="#231F20"/>
<path d="M123.47 37.0001C123.073 36.7022 122.739 36.3289 122.487 35.9017C122.235 35.4744 122.069 35.0015 122 34.5101C121.864 33.5025 121.956 32.4772 122.27 31.5101L121.4 30.5801C121.67 30.4001 122 30.2201 122.4 30.0201C122.744 29.8541 123.04 29.6028 123.26 29.2901C123.734 28.4787 124.32 27.7381 125 27.0901C125.837 26.249 126.729 25.4639 127.67 24.7401C128.687 23.9715 129.752 23.27 130.86 22.6401C131.928 22.0309 133.057 21.5381 134.23 21.1701C135.237 20.8479 136.293 20.7057 137.35 20.7501C138.269 20.7816 139.147 21.1357 139.83 21.7501C140.347 22.2883 140.744 22.9305 140.994 23.634C141.244 24.3375 141.342 25.0861 141.28 25.8301C141.108 27.3561 140.562 28.8159 139.69 30.0801C138.681 31.5788 137.435 32.9028 136 34.0001C134.59 35.1358 133.045 36.093 131.4 36.8501C129.984 37.4993 128.464 37.8888 126.91 38.0001C126.299 38.0779 125.678 38.0292 125.086 37.8572C124.494 37.6852 123.944 37.3935 123.47 37.0001V37.0001ZM127.07 29.5801C127.184 29.8054 127.357 29.9956 127.57 30.1301C127.796 30.2814 128.013 30.4449 128.22 30.6201L126.94 31.4601C126.53 31.7301 126.13 32.0001 125.73 32.2901C125.389 32.9107 125.166 33.5887 125.07 34.2901C125.016 34.5762 125.019 34.8702 125.079 35.155C125.139 35.4399 125.255 35.7101 125.42 35.9501C125.611 36.1798 125.854 36.361 126.129 36.4792C126.403 36.5973 126.702 36.649 127 36.6301C128.065 36.5398 129.094 36.197 130 35.6301C131.513 34.8351 132.868 33.7711 134 32.4901C135.079 31.2629 136.022 29.9216 136.81 28.4901C137.442 27.3308 137.846 26.0613 138 24.7501C138.099 24.3346 138.088 23.9006 137.969 23.4904C137.849 23.0803 137.626 22.7081 137.32 22.4101C136.133 22.3953 134.961 22.6771 133.91 23.2301C132.943 23.7275 132.08 24.4066 131.37 25.2301C130.799 25.8698 130.448 26.6761 130.37 27.5301C130.342 27.914 130.436 28.297 130.639 28.624C130.842 28.951 131.143 29.2052 131.5 29.3501C131.995 29.6505 132.561 29.8128 133.14 29.8201C133.808 29.8467 134.476 29.8233 135.14 29.7501C134.69 30.0401 134.24 30.3101 133.78 30.5601C133.334 30.8088 132.846 30.9716 132.34 31.0401C131.774 31.1277 131.195 31.0183 130.7 30.7301C130.487 30.6043 130.303 30.4351 130.16 30.2335C130.017 30.0319 129.918 29.8025 129.87 29.5601C129.617 28.7127 129.652 27.8054 129.97 26.9801C130.296 26.0905 130.796 25.2747 131.44 24.5801C130.477 25.4216 129.597 26.3524 128.81 27.3601C128 28.3201 127.41 29.0801 127.07 29.6201V29.5801ZM135.23 22.2001C135.311 22.2045 135.391 22.1836 135.46 22.1401C135.396 22.1979 135.316 22.233 135.23 22.2401V22.2001ZM136.78 22.1501L137.33 22.3701C137.158 22.2793 136.972 22.2184 136.78 22.1901V22.1501Z" fill="#231F20"/>
<path d="M146.58 29.57C146.74 29.75 146.92 29.93 147.11 30.11C147.3 30.29 147.5 30.48 147.72 30.66C147.259 31.0297 146.771 31.364 146.26 31.66C145.756 31.962 145.272 32.296 144.81 32.66C144.451 33.2271 144.219 33.8649 144.13 34.5299C143.996 35.2241 144.027 35.9399 144.22 36.6199C144.407 36.8832 144.67 37.0827 144.974 37.1918C145.278 37.3009 145.608 37.3142 145.92 37.2299C146.836 37.0967 147.73 36.8445 148.58 36.4799C148.743 36.4258 148.904 36.3623 149.06 36.29C149.289 36.1978 149.523 36.1177 149.76 36.0499C149.451 35.4679 149.342 34.8001 149.45 34.15C149.582 33.297 149.81 32.4617 150.13 31.66L149.18 30.7299C149.496 30.497 149.831 30.2897 150.18 30.11C150.521 29.9388 150.832 29.7124 151.1 29.4399C151.89 28.2499 152.58 27.13 153.17 26.09C153.706 25.1181 154.339 24.2034 155.06 23.36C155.692 22.6111 156.459 21.987 157.32 21.52C158.275 21.0503 159.338 20.8432 160.4 20.9199C159.744 21.4083 159.181 22.0113 158.74 22.7C158.13 23.56 157.54 24.47 156.96 25.4C156.38 26.33 155.9 27.2099 155.49 28.0299C155.21 28.5342 154.985 29.0673 154.82 29.6199L155.96 30.72C155.501 31.0874 155.017 31.4216 154.51 31.72C154.003 32.0219 153.515 32.3559 153.05 32.72C152.644 33.3129 152.402 34.0031 152.35 34.72C152.247 35.4504 152.323 36.195 152.57 36.8899C152.691 37.0658 152.854 37.2084 153.045 37.3045C153.235 37.4007 153.447 37.4472 153.66 37.4399C154.165 37.4824 154.673 37.4316 155.16 37.29L156.56 36.84C157.019 36.681 157.467 36.4905 157.9 36.27L159.97 35.36C160.057 35.6343 160.185 35.8939 160.35 36.13C160.226 36.1492 160.107 36.1934 160 36.2599L159.4 36.5499L158.8 36.8499C158.688 36.9124 158.566 36.9563 158.44 36.9799C157.91 37.2299 157.38 37.46 156.86 37.65C156.328 37.8528 155.783 38.0231 155.23 38.16C154.261 38.3677 153.258 38.3437 152.3 38.09C151.478 37.9088 150.748 37.4408 150.24 36.77L148.97 37.31C147.975 37.777 146.905 38.0648 145.81 38.16C144.638 38.1826 143.49 37.8324 142.53 37.16L142.47 37.0999L142.4 37.0499C142.036 36.8224 141.736 36.5053 141.53 36.1289C141.323 35.7525 141.216 35.3293 141.22 34.9C141.265 33.792 141.499 32.6997 141.91 31.6699L140.91 30.74C141.23 30.5122 141.564 30.3051 141.91 30.1199C142.239 29.9436 142.54 29.7176 142.8 29.45C143.58 28.26 144.29 27.1499 144.9 26.0999C145.456 25.1388 146.092 24.2256 146.8 23.3699C147.4 22.597 148.148 21.9512 149 21.47C149.957 20.9951 151.024 20.7845 152.09 20.86C151.464 21.3723 150.916 21.9718 150.46 22.64C149.823 23.5116 149.232 24.4162 148.69 25.3499C148.14 26.2799 147.69 27.16 147.25 27.97C146.968 28.4766 146.743 29.0133 146.58 29.57V29.57Z" fill="#231F20"/>
<path d="M150.51 15.7999C151.85 16.3151 153.252 16.6513 154.68 16.7999C156.233 16.9789 157.798 17.0358 159.36 16.9699C161.034 16.8938 162.703 16.7303 164.36 16.4799C166.09 16.2199 167.85 15.9099 169.62 15.5599L172.05 12.0499C172.89 10.8199 173.7 9.60993 174.47 8.39993C175.227 7.20525 175.911 5.96637 176.52 4.68993C176.7 4.18993 176.88 3.68993 177.06 3.22993C177.238 2.76084 177.323 2.26152 177.31 1.75993C177.24 1.58449 177.183 1.40397 177.14 1.21993C177.105 1.04164 177.105 0.858226 177.14 0.679932C177.406 0.691311 177.661 0.785747 177.87 0.949931C178.02 1.09993 178.18 1.24993 178.35 1.38993C179.889 2.84581 180.923 4.75532 181.3 6.83993C181.658 8.95134 181.458 11.1195 180.72 13.1299C182.96 12.6299 185.077 12.2266 187.07 11.9199C188.85 11.6165 190.656 11.4992 192.46 11.5699C193.869 11.6095 195.254 11.9505 196.52 12.5699C197.079 12.8602 197.575 13.2578 197.98 13.74C198.385 14.2221 198.691 14.7794 198.88 15.3799C198.013 14.4084 196.879 13.713 195.62 13.3799C194.199 12.9957 192.732 12.8139 191.26 12.8399C189.515 12.864 187.776 13.0346 186.06 13.3499C184.19 13.6899 182.24 14.0799 180.2 14.5399C179.523 16.104 178.609 17.5543 177.49 18.8399C176.253 20.2545 174.834 21.4987 173.27 22.5399H173.19L172.04 23.2999H172C171.691 23.4595 171.374 23.6031 171.05 23.7299C170.52 23.9399 169.98 24.1599 169.43 24.3999L167.25 25.3299L164.92 28.9999L164.71 29.3599C164.647 29.4682 164.603 29.5866 164.58 29.7099L165.72 30.7999C165.261 31.1674 164.777 31.5016 164.27 31.7999C163.761 32.0995 163.273 32.4336 162.81 32.7999C162.473 33.2744 162.257 33.8234 162.18 34.3999C162.071 34.9777 162.095 35.5727 162.25 36.1399C162.411 36.6616 162.77 37.0995 163.25 37.3599C163.605 37.5079 163.986 37.5841 164.37 37.5841C164.754 37.5841 165.135 37.5079 165.49 37.3599C166.433 37.0846 167.353 36.7334 168.24 36.3099C169.09 35.8999 169.95 35.4999 170.8 35.1099L171.52 34.7299C171.692 34.6183 171.895 34.5625 172.1 34.5699C172.157 34.5864 172.207 34.6186 172.246 34.6629C172.285 34.7072 172.311 34.7616 172.32 34.8199C172.337 34.9719 172.298 35.1247 172.21 35.2499C172.143 35.3814 172.034 35.4868 171.9 35.5499L171.1 35.9199C170.2 36.3199 169.31 36.7499 168.42 37.2099C167.523 37.6773 166.563 38.0141 165.57 38.2099C164.372 38.4776 163.126 38.4328 161.95 38.0799C161.134 37.8356 160.427 37.3162 159.95 36.6099C159.533 35.9239 159.321 35.1326 159.34 34.3299C159.345 33.4356 159.518 32.5502 159.85 31.7199L158.85 30.7999C159.161 30.5599 159.497 30.3522 159.85 30.1799C160.19 30.0019 160.5 29.7726 160.77 29.4999C160.85 29.3199 160.99 29.0399 161.21 28.6399C161.43 28.2399 161.64 27.8199 161.86 27.3699C162.08 26.9199 162.3 26.4899 162.52 26.0899C162.673 25.7935 162.843 25.5063 163.03 25.2299H162.96L163.54 24.4199C163.601 24.314 163.655 24.2037 163.7 24.0899C163.7 23.9799 163.7 23.9099 163.55 23.8699C162.877 23.543 162.268 23.0995 161.75 22.5599C161.32 22.0678 161.057 21.4513 161 20.7999C160.904 20.2267 160.977 19.6381 161.21 19.1055C161.442 18.5729 161.825 18.1194 162.31 17.7999C160.224 17.932 158.13 17.8549 156.06 17.5699C154.12 17.3105 152.242 16.7113 150.51 15.7999V15.7999ZM168.62 16.9999C168.06 17.1099 167.49 17.1999 166.92 17.2899C166.35 17.3799 165.77 17.4499 165.22 17.5199C164.78 17.832 164.357 18.1658 163.95 18.5199C163.562 18.8511 163.242 19.2554 163.01 19.7099C162.812 20.031 162.681 20.3886 162.624 20.7614C162.568 21.1342 162.587 21.5146 162.68 21.8799C162.783 22.2393 162.957 22.5741 163.193 22.8645C163.428 23.1549 163.72 23.3948 164.05 23.5699C164.777 22.4499 165.527 21.3499 166.3 20.2699C167.07 19.2599 167.84 18.1599 168.62 16.9999ZM178.92 14.7799C178.21 14.9599 177.45 15.1299 176.66 15.3099L174.33 15.8399L173.99 16.3299L173.65 16.8099C172.91 17.9966 172.1 19.1766 171.22 20.3499C170.34 21.5233 169.503 22.7033 168.71 23.8899C170.803 23.1298 172.748 22.0134 174.46 20.5899C175.984 19.3235 177.27 17.7964 178.26 16.0799C178.517 15.6804 178.738 15.2587 178.92 14.8199V14.7799ZM175.32 14.3199L179.53 13.3699C180.026 11.8682 180.253 10.2906 180.2 8.70993C180.152 7.18493 179.788 5.68652 179.13 4.30993C179.04 4.5806 178.996 4.8646 179 5.14993C179.001 5.43142 178.977 5.71245 178.93 5.98993C178.673 7.44734 178.212 8.86125 177.56 10.1899C176.89 11.6199 176.14 12.9999 175.32 14.3599V14.3199Z" fill="#231F20"/>
<path d="M208.29 34.7C208.085 34.6779 207.879 34.7312 207.71 34.85L204.71 36.3C203.731 36.7915 202.706 37.1867 201.65 37.48C201.163 37.6216 200.655 37.6724 200.15 37.63C199.928 37.6306 199.708 37.5815 199.508 37.4863C199.307 37.3911 199.13 37.2523 198.99 37.08C198.744 36.3845 198.678 35.6377 198.8 34.91C198.875 34.2026 199.104 33.5201 199.47 32.91C199.97 32.55 200.47 32.22 201 31.91C201.508 31.614 201.993 31.2797 202.45 30.91L201.85 30.36C201.66 30.18 201.48 30 201.31 29.81C201.526 29.1283 201.783 28.4605 202.08 27.81C202.53 26.9249 203.088 26.0987 203.74 25.35C204.392 24.5095 205.111 23.7236 205.89 23C206.419 22.4466 207.038 21.9867 207.72 21.64C208.08 21.5 208.22 21.28 208.12 20.99C208.02 20.7 207.81 20.63 207.35 20.77C206 21.19 204.91 21.58 204.07 21.92L201.93 22.77C201.36 23.01 200.82 23.2 200.33 23.36C199.773 23.5308 199.2 23.6447 198.62 23.7C199.019 23.3413 199.454 23.0262 199.92 22.76L201.47 21.85C201.952 21.5535 202.411 21.2191 202.84 20.85C203.229 20.5234 203.528 20.1037 203.71 19.63C203.827 19.4515 203.873 19.2359 203.84 19.0253C203.806 18.8146 203.696 18.6238 203.53 18.49C203.53 18.49 203.46 18.49 203.47 18.49C203.029 18.2191 202.518 18.0835 202 18.1C200.972 18.0965 199.953 18.2935 199 18.68C197.879 19.0768 196.806 19.5967 195.8 20.23C194.952 20.7468 194.214 21.4265 193.63 22.23C193.512 22.356 193.422 22.5057 193.366 22.6692C193.31 22.8327 193.289 23.0062 193.305 23.1783C193.321 23.3503 193.373 23.517 193.459 23.6673C193.544 23.8176 193.66 23.948 193.8 24.05C194.329 24.5325 195.024 24.7906 195.74 24.77C196.15 23.86 190.07 35.39 185.6 37.46C185.12 37.6326 184.605 37.6842 184.1 37.61C183.879 37.6167 183.66 37.5636 183.466 37.4562C183.273 37.3488 183.111 37.1912 183 37C182.748 36.306 182.669 35.5613 182.77 34.83C182.822 34.1115 183.068 33.4205 183.48 32.83C183.94 32.4637 184.424 32.1296 184.93 31.83C185.438 31.534 185.923 31.1997 186.38 30.83L185.25 29.74C185.408 29.1816 185.633 28.6444 185.92 28.14C186.32 27.33 186.81 26.45 187.39 25.51C187.97 24.57 188.55 23.68 189.17 22.81C189.611 22.1243 190.17 21.5218 190.82 21.03C189.757 20.9563 188.694 21.1668 187.74 21.64C186.882 22.1029 186.118 22.7238 185.49 23.47C184.766 24.3131 184.129 25.2278 183.59 26.2C183 27.2 182.31 28.36 181.52 29.55C181.254 29.8247 180.943 30.0514 180.6 30.22C180.253 30.4044 179.919 30.6115 179.6 30.84L180.55 31.77C180.233 32.5719 180.008 33.4073 179.88 34.26C179.769 34.9091 179.874 35.5767 180.18 36.16C179.942 36.2308 179.709 36.3143 179.48 36.41L179.01 36.59C178.16 36.9565 177.266 37.2087 176.35 37.34C176.038 37.4257 175.708 37.4131 175.404 37.3039C175.099 37.1947 174.836 36.9943 174.65 36.73C174.448 36.0516 174.414 35.3345 174.55 34.64C174.639 33.9749 174.871 33.3371 175.23 32.77C175.692 32.4025 176.18 32.0683 176.69 31.77C177.196 31.4703 177.68 31.1362 178.14 30.77C177.93 30.59 177.73 30.41 177.54 30.22L177 29.68C177.169 29.1256 177.394 28.5896 177.67 28.08C178.08 27.27 178.56 26.4 179.11 25.46C179.655 24.5261 180.25 23.6215 180.89 22.75C181.348 22.0924 181.897 21.5032 182.52 21C181.457 20.9263 180.394 21.1368 179.44 21.61C178.588 22.0697 177.834 22.6913 177.22 23.44C176.516 24.299 175.881 25.2118 175.32 26.17C174.71 27.22 174.01 28.33 173.22 29.52C172.96 29.7908 172.66 30.0202 172.33 30.2C171.998 30.3821 171.68 30.5893 171.38 30.82L172.33 31.74C171.919 32.7697 171.685 33.862 171.64 34.97C171.637 35.3992 171.744 35.8219 171.951 36.1982C172.157 36.5745 172.457 36.8917 172.82 37.12H172.89L172.96 37.18C173.916 37.8595 175.067 38.2104 176.24 38.18C177.335 38.0836 178.404 37.7959 179.4 37.33L180.66 36.79C181.17 37.4589 181.899 37.9263 182.72 38.11C183.677 38.3687 184.682 38.3927 185.65 38.18C185.956 38.1225 186.254 38.032 186.54 37.91C190.29 36.23 196.02 26.6 196.06 26.55C196.69 25.7 197.22 25.04 197.64 24.55C198.615 24.4909 199.58 24.3266 200.52 24.06C201.486 23.8194 202.419 23.4635 203.3 23C202.24 23.9378 201.238 24.9397 200.3 26C199.48 27 198.47 28.36 197.56 29.69C197.299 29.9576 196.999 30.1836 196.67 30.36C196.32 30.56 195.98 30.77 195.67 30.98C196.027 31.2455 196.347 31.5583 196.62 31.91C196.232 32.8221 195.995 33.7916 195.92 34.78C195.887 35.1588 195.936 35.5404 196.066 35.8979C196.196 36.2555 196.402 36.5804 196.67 36.85C197.185 37.561 197.937 38.0646 198.79 38.27C199.762 38.5695 200.795 38.6143 201.79 38.4C202.786 38.204 203.749 37.8673 204.65 37.4C205.54 36.94 206.43 36.51 207.33 36.12C207.432 36.0558 207.539 35.9989 207.65 35.95C207.791 35.8882 207.928 35.818 208.06 35.74C208.188 35.6729 208.293 35.5682 208.36 35.44C208.449 35.3134 208.501 35.1645 208.51 35.01C208.523 34.9748 208.527 34.9371 208.522 34.8999C208.518 34.8628 208.504 34.8274 208.482 34.7968C208.46 34.7663 208.431 34.7415 208.398 34.7246C208.365 34.7077 208.327 34.6993 208.29 34.7V34.7ZM196.54 23.82C196.204 23.8275 195.869 23.7973 195.54 23.73C195.275 23.678 195.029 23.5534 194.83 23.37C194.3 23.05 194.13 22.7 194.34 22.37C194.63 21.9268 195.044 21.5789 195.53 21.37C196.794 20.7929 198.146 20.4345 199.53 20.31C199.935 20.244 200.35 20.3144 200.71 20.51C200.93 20.67 200.78 20.97 200.27 21.4C199.76 21.83 199.04 22.03 198.33 22.45C197.681 22.8344 197.081 23.2942 196.54 23.82V23.82Z" fill="#231F20"/>
<path d="M219.63 34.92C219.356 35.0868 219.072 35.237 218.78 35.37C218.563 35.4609 218.358 35.5784 218.17 35.72C217.103 36.26 216.023 36.77 214.93 37.25C213.829 37.7234 212.673 38.0592 211.49 38.25C210.76 38.3952 210.01 38.3952 209.28 38.25C208.628 38.1311 208.018 37.8451 207.51 37.42C207.106 37.1216 206.767 36.7428 206.516 36.3074C206.265 35.8721 206.106 35.3895 206.05 34.89C205.945 33.8786 206.054 32.8564 206.37 31.89L205.49 30.96L206.49 30.39C206.815 30.2159 207.095 29.9695 207.31 29.67C208.183 28.1632 209.267 26.7892 210.53 25.59C211.916 24.264 213.528 23.1972 215.29 22.44C216.128 22.066 217.003 21.7811 217.9 21.59C218.794 21.3781 219.711 21.2807 220.63 21.3C221.424 21.3055 222.209 21.4687 222.94 21.78C223.58 22.0505 224.089 22.5599 224.36 23.2C224.497 23.7697 224.485 24.3651 224.326 24.9289C224.166 25.4927 223.865 26.0062 223.45 26.42C222.371 27.6963 220.963 28.654 219.38 29.19C218.308 29.6516 217.165 29.9256 216 30C215.058 30.0501 214.117 29.8966 213.24 29.55C214.403 29.546 215.556 29.3431 216.65 28.95C217.787 28.57 218.874 28.0564 219.89 27.42C220.757 26.909 221.512 26.2288 222.11 25.42C222.354 25.1212 222.516 24.7637 222.579 24.383C222.642 24.0023 222.605 23.6117 222.47 23.25C222.392 23.0041 222.251 22.7826 222.062 22.6073C221.873 22.432 221.641 22.3089 221.39 22.25C220.875 22.1626 220.346 22.2179 219.86 22.41C219.27 22.6213 218.706 22.8998 218.18 23.24C217.6 23.6 217.09 23.94 216.64 24.24C214.499 25.8059 212.67 27.7597 211.25 30C211.283 30.1139 211.337 30.2202 211.411 30.3129C211.485 30.4055 211.576 30.4827 211.68 30.54C211.9 30.69 212.11 30.86 212.33 31.04L211.05 31.87C210.63 32.14 210.23 32.42 209.84 32.71C209.358 33.527 209.148 34.4759 209.24 35.42C209.287 35.7682 209.392 36.1061 209.55 36.42C209.657 36.5967 209.802 36.747 209.976 36.8595C210.149 36.9721 210.345 37.044 210.55 37.07C211.06 37.2198 211.597 37.2505 212.12 37.16C212.654 37.0751 213.18 36.9412 213.69 36.76C214.42 36.51 215.13 36.24 215.82 35.93C216.507 35.6379 217.174 35.304 217.82 34.93L218.51 34.58C218.91 34.38 219.19 34.23 219.36 34.12C219.558 33.9715 219.803 33.8972 220.05 33.91C220.19 33.91 220.27 34.02 220.27 34.13C220.263 34.2813 220.198 34.4242 220.09 34.53C219.962 34.6868 219.806 34.819 219.63 34.92V34.92Z" fill="#231F20"/>
<path d="M223.06 35.8901H222.18V38.2901H221.76V35.8901H220.87V35.6001H223.06V35.8901ZM225.14 37.7401L225.93 35.6001H226.53V38.2901H226.16V35.9201L225.26 38.2901H225L224.06 35.9201V38.2901H223.69V35.6001H224.29L225.14 37.7401Z" fill="#231F20" stroke="#231F20" stroke-width="0.15" stroke-miterlimit="10"/>
</g>
<defs>
<clipPath id="clip0">
<rect width="228" height="47" fill="white"/>
</clipPath>
</defs>
</svg>
